<svg width="250" height="96" viewBox="0 0 250 96" fill="none" xmlns="http://www.w3.org/2000/svg">
<path d="M47.5992 43.6998L56.8992 69.5998H37.1992H37.0992L36.6992 70.7998H57.3992L64.2992 89.8998L64.4992 90.9998C64.4992 92.1998 63.4992 92.9998 61.4992 93.3998C59.4992 93.7998 55.7992 93.9998 50.3992 93.9998V95.0998H90.2992V93.9998C84.8992 93.9998 81.6992 93.6998 80.5992 93.1998C79.4992 92.6998 78.3992 90.8998 77.3992 87.9998L54.5992 26.2998" fill="white"/>
<path d="M36.5 70.7L13.5 7.10001C12.5 4.20001 11.4 2.5 10.2 1.9C9 1.3 5.6 1 0 1V0H39.3V1C34.3 1 30.9 1.2 29.1 1.7C27.3 2.2 26.3 3.10001 26.3 4.60001C26.3 5.20001 26.5 6.00001 26.8 7.10001L43.8 52.8" fill="white"/>
<path d="M27 94.5996L64.5 1.59961" stroke="white" stroke-width="1.1" stroke-miterlimit="10"/>
<path d="M103.133 33H99.4224L99.4468 31.0835H103.133C104.403 31.0835 105.461 30.819 106.307 30.29C107.153 29.7529 107.788 29.0042 108.211 28.0439C108.643 27.0755 108.858 25.9443 108.858 24.6504V23.564C108.858 22.5467 108.736 21.6434 108.492 20.854C108.248 20.0565 107.89 19.3851 107.418 18.8398C106.946 18.2865 106.368 17.8674 105.685 17.5825C105.009 17.2977 104.232 17.1553 103.353 17.1553H99.3491V15.2266H103.353C104.517 15.2266 105.579 15.4219 106.539 15.8125C107.499 16.195 108.325 16.7524 109.017 17.4849C109.717 18.2091 110.254 19.0881 110.628 20.1216C111.003 21.147 111.19 22.3026 111.19 23.5884V24.6504C111.19 25.9362 111.003 27.0959 110.628 28.1294C110.254 29.1548 109.713 30.0296 109.005 30.7539C108.305 31.4782 107.459 32.0356 106.466 32.4263C105.481 32.8088 104.37 33 103.133 33ZM100.68 15.2266V33H98.3237V15.2266H100.68ZM116.646 21.8672V33H114.388V19.792H116.585L116.646 21.8672ZM120.772 19.7188L120.76 21.8184C120.573 21.7777 120.394 21.7533 120.223 21.7451C120.06 21.7288 119.873 21.7207 119.662 21.7207C119.141 21.7207 118.681 21.8021 118.282 21.9648C117.883 22.1276 117.546 22.3555 117.269 22.6484C116.992 22.9414 116.773 23.2913 116.61 23.6982C116.455 24.097 116.354 24.5365 116.305 25.0166L115.67 25.3828C115.67 24.5853 115.747 23.8366 115.902 23.1367C116.065 22.4368 116.313 21.8184 116.646 21.2812C116.98 20.736 117.403 20.3128 117.916 20.0117C118.437 19.7025 119.055 19.5479 119.771 19.5479C119.934 19.5479 120.121 19.5682 120.333 19.6089C120.545 19.6414 120.691 19.6781 120.772 19.7188ZM121.383 31.8037C121.383 31.4212 121.501 31.0998 121.737 30.8394C121.981 30.5708 122.331 30.4365 122.787 30.4365C123.242 30.4365 123.588 30.5708 123.824 30.8394C124.068 31.0998 124.19 31.4212 124.19 31.8037C124.19 32.1781 124.068 32.4954 123.824 32.7559C123.588 33.0163 123.242 33.1465 122.787 33.1465C122.331 33.1465 121.981 33.0163 121.737 32.7559C121.501 32.4954 121.383 32.1781 121.383 31.8037ZM141.061 16.8013L135.177 33H132.772L139.547 15.2266H141.097L141.061 16.8013ZM145.992 33L140.096 16.8013L140.06 15.2266H141.61L148.409 33H145.992ZM145.687 26.4204V28.3491H135.702V26.4204H145.687ZM152.706 22.6118V33H150.448V19.792H152.584L152.706 22.6118ZM152.169 25.8955L151.229 25.8589C151.237 24.9556 151.371 24.1214 151.632 23.3564C151.892 22.5833 152.258 21.9119 152.73 21.3423C153.202 20.7726 153.764 20.3332 154.415 20.0239C155.074 19.7065 155.803 19.5479 156.6 19.5479C157.251 19.5479 157.837 19.6374 158.358 19.8164C158.879 19.9873 159.322 20.264 159.688 20.6465C160.063 21.029 160.348 21.5254 160.543 22.1357C160.738 22.738 160.836 23.4744 160.836 24.3452V33H158.565V24.3208C158.565 23.6291 158.464 23.0757 158.26 22.6606C158.057 22.2375 157.76 21.9323 157.369 21.7451C156.979 21.5498 156.498 21.4521 155.929 21.4521C155.367 21.4521 154.854 21.5701 154.391 21.8062C153.935 22.0422 153.54 22.3677 153.207 22.7827C152.881 23.1978 152.625 23.6738 152.438 24.2109C152.258 24.7399 152.169 25.3014 152.169 25.8955ZM172.591 30.4365V14.25H174.862V33H172.787L172.591 30.4365ZM163.705 26.5425V26.2861C163.705 25.277 163.827 24.3615 164.071 23.5396C164.323 22.7095 164.677 21.9974 165.133 21.4033C165.597 20.8092 166.146 20.3535 166.781 20.0361C167.424 19.7106 168.14 19.5479 168.929 19.5479C169.759 19.5479 170.484 19.6943 171.102 19.9873C171.729 20.2721 172.258 20.6912 172.689 21.2446C173.128 21.7899 173.474 22.4491 173.727 23.2222C173.979 23.9953 174.154 24.8701 174.251 25.8467V26.9697C174.162 27.9382 173.987 28.8089 173.727 29.582C173.474 30.3551 173.128 31.0143 172.689 31.5596C172.258 32.1048 171.729 32.5239 171.102 32.8169C170.475 33.1017 169.743 33.2441 168.905 33.2441C168.132 33.2441 167.424 33.0773 166.781 32.7437C166.146 32.41 165.597 31.9421 165.133 31.3398C164.677 30.7376 164.323 30.0296 164.071 29.2158C163.827 28.3939 163.705 27.5028 163.705 26.5425ZM165.975 26.2861V26.5425C165.975 27.2017 166.04 27.8201 166.17 28.3979C166.309 28.9757 166.52 29.4844 166.805 29.9238C167.09 30.3633 167.452 30.7091 167.892 30.9614C168.331 31.2056 168.856 31.3276 169.466 31.3276C170.215 31.3276 170.829 31.1689 171.31 30.8516C171.798 30.5342 172.188 30.1151 172.481 29.5942C172.774 29.0734 173.002 28.5078 173.165 27.8975V24.9556C173.067 24.508 172.925 24.0767 172.738 23.6616C172.559 23.2384 172.323 22.8641 172.03 22.5386C171.745 22.2049 171.391 21.9404 170.968 21.7451C170.553 21.5498 170.06 21.4521 169.491 21.4521C168.872 21.4521 168.339 21.5824 167.892 21.8428C167.452 22.0951 167.09 22.445 166.805 22.8926C166.52 23.332 166.309 23.8447 166.17 24.4307C166.04 25.0085 165.975 25.627 165.975 26.2861ZM180.636 21.8672V33H178.377V19.792H180.575L180.636 21.8672ZM184.762 19.7188L184.75 21.8184C184.562 21.7777 184.383 21.7533 184.212 21.7451C184.05 21.7288 183.862 21.7207 183.651 21.7207C183.13 21.7207 182.67 21.8021 182.271 21.9648C181.873 22.1276 181.535 22.3555 181.258 22.6484C180.982 22.9414 180.762 23.2913 180.599 23.6982C180.444 24.097 180.343 24.5365 180.294 25.0166L179.659 25.3828C179.659 24.5853 179.736 23.8366 179.891 23.1367C180.054 22.4368 180.302 21.8184 180.636 21.2812C180.969 20.736 181.393 20.3128 181.905 20.0117C182.426 19.7025 183.045 19.5479 183.761 19.5479C183.924 19.5479 184.111 19.5682 184.322 19.6089C184.534 19.6414 184.68 19.6781 184.762 19.7188ZM192.086 33.2441C191.166 33.2441 190.332 33.0895 189.583 32.7803C188.843 32.4629 188.204 32.0194 187.667 31.4497C187.138 30.88 186.731 30.2046 186.446 29.4233C186.161 28.6421 186.019 27.7876 186.019 26.8599V26.3472C186.019 25.2729 186.178 24.3167 186.495 23.4785C186.812 22.6322 187.244 21.916 187.789 21.3301C188.334 20.7441 188.953 20.3006 189.645 19.9995C190.336 19.6984 191.052 19.5479 191.793 19.5479C192.737 19.5479 193.551 19.7106 194.234 20.0361C194.926 20.3617 195.492 20.8174 195.931 21.4033C196.371 21.9811 196.696 22.6647 196.908 23.4541C197.119 24.2354 197.225 25.0898 197.225 26.0176V27.0308H187.362V25.1875H194.967V25.0166C194.934 24.4307 194.812 23.861 194.601 23.3076C194.397 22.7542 194.072 22.2985 193.624 21.9404C193.176 21.5824 192.566 21.4033 191.793 21.4033C191.28 21.4033 190.808 21.5132 190.377 21.7329C189.946 21.9445 189.575 22.2619 189.266 22.6851C188.957 23.1082 188.717 23.625 188.546 24.2354C188.375 24.8457 188.29 25.5496 188.29 26.3472V26.8599C188.29 27.4865 188.375 28.0765 188.546 28.6299C188.725 29.1751 188.981 29.6553 189.315 30.0703C189.657 30.4854 190.068 30.8109 190.548 31.0469C191.036 31.2829 191.59 31.4009 192.208 31.4009C193.006 31.4009 193.681 31.2381 194.234 30.9126C194.788 30.5871 195.272 30.1517 195.687 29.6064L197.054 30.6929C196.769 31.1242 196.407 31.5352 195.968 31.9258C195.528 32.3164 194.987 32.6338 194.344 32.8779C193.709 33.1221 192.957 33.2441 192.086 33.2441ZM205.343 33.2441C204.423 33.2441 203.589 33.0895 202.84 32.7803C202.1 32.4629 201.461 32.0194 200.924 31.4497C200.395 30.88 199.988 30.2046 199.703 29.4233C199.418 28.6421 199.276 27.7876 199.276 26.8599V26.3472C199.276 25.2729 199.435 24.3167 199.752 23.4785C200.069 22.6322 200.501 21.916 201.046 21.3301C201.591 20.7441 202.21 20.3006 202.901 19.9995C203.593 19.6984 204.309 19.5479 205.05 19.5479C205.994 19.5479 206.808 19.7106 207.491 20.0361C208.183 20.3617 208.749 20.8174 209.188 21.4033C209.627 21.9811 209.953 22.6647 210.165 23.4541C210.376 24.2354 210.482 25.0898 210.482 26.0176V27.0308H200.619V25.1875H208.224V25.0166C208.191 24.4307 208.069 23.861 207.857 23.3076C207.654 22.7542 207.328 22.2985 206.881 21.9404C206.433 21.5824 205.823 21.4033 205.05 21.4033C204.537 21.4033 204.065 21.5132 203.634 21.7329C203.202 21.9445 202.832 22.2619 202.523 22.6851C202.214 23.1082 201.974 23.625 201.803 24.2354C201.632 24.8457 201.546 25.5496 201.546 26.3472V26.8599C201.546 27.4865 201.632 28.0765 201.803 28.6299C201.982 29.1751 202.238 29.6553 202.572 30.0703C202.914 30.4854 203.325 30.8109 203.805 31.0469C204.293 31.2829 204.846 31.4009 205.465 31.4009C206.262 31.4009 206.938 31.2381 207.491 30.9126C208.045 30.5871 208.529 30.1517 208.944 29.6064L210.311 30.6929C210.026 31.1242 209.664 31.5352 209.225 31.9258C208.785 32.3164 208.244 32.6338 207.601 32.8779C206.966 33.1221 206.214 33.2441 205.343 33.2441ZM216.964 30.9614L220.577 19.792H222.884L218.136 33H216.622L216.964 30.9614ZM213.949 19.792L217.672 31.0225L217.928 33H216.415L211.629 19.792H213.949ZM232.65 30.7417V23.9424C232.65 23.4215 232.544 22.9699 232.333 22.5874C232.129 22.1968 231.82 21.8957 231.405 21.6841C230.99 21.4725 230.477 21.3667 229.867 21.3667C229.297 21.3667 228.797 21.4644 228.365 21.6597C227.942 21.855 227.608 22.1113 227.364 22.4287C227.128 22.7461 227.01 23.0879 227.01 23.4541H224.752C224.752 22.9821 224.874 22.5142 225.118 22.0503C225.362 21.5864 225.712 21.1673 226.168 20.793C226.632 20.4105 227.185 20.1094 227.828 19.8896C228.479 19.6618 229.203 19.5479 230.001 19.5479C230.961 19.5479 231.808 19.7106 232.54 20.0361C233.281 20.3617 233.858 20.854 234.273 21.5132C234.697 22.1642 234.908 22.9821 234.908 23.9668V30.1191C234.908 30.5586 234.945 31.0265 235.018 31.5229C235.099 32.0194 235.217 32.4466 235.372 32.8047V33H233.016C232.902 32.7396 232.813 32.3937 232.748 31.9624C232.682 31.5229 232.65 31.116 232.65 30.7417ZM233.041 24.9922L233.065 26.5791H230.782C230.139 26.5791 229.566 26.632 229.061 26.7378C228.556 26.8354 228.133 26.986 227.792 27.1895C227.45 27.3929 227.189 27.6493 227.01 27.9585C226.831 28.2596 226.742 28.6136 226.742 29.0205C226.742 29.4355 226.835 29.814 227.022 30.1558C227.21 30.4976 227.49 30.7702 227.865 30.9736C228.247 31.1689 228.715 31.2666 229.269 31.2666C229.96 31.2666 230.571 31.1201 231.1 30.8271C231.629 30.5342 232.048 30.1761 232.357 29.7529C232.674 29.3298 232.845 28.9188 232.87 28.52L233.834 29.6064C233.777 29.9482 233.622 30.3267 233.37 30.7417C233.118 31.1567 232.78 31.5555 232.357 31.938C231.942 32.3123 231.445 32.6257 230.868 32.8779C230.298 33.1221 229.655 33.2441 228.939 33.2441C228.044 33.2441 227.258 33.0692 226.583 32.7192C225.916 32.3693 225.395 31.9014 225.021 31.3154C224.654 30.7214 224.471 30.0581 224.471 29.3257C224.471 28.6177 224.61 27.9951 224.886 27.458C225.163 26.9128 225.562 26.4611 226.083 26.103C226.603 25.7368 227.23 25.4601 227.962 25.2729C228.695 25.0858 229.513 24.9922 230.416 24.9922H233.041ZM128.084 55.0298H123.336V53.1133H128.084C129.004 53.1133 129.749 52.9668 130.318 52.6738C130.888 52.3809 131.303 51.974 131.563 51.4531C131.832 50.9323 131.966 50.3382 131.966 49.6709C131.966 49.0605 131.832 48.4868 131.563 47.9497C131.303 47.4126 130.888 46.9813 130.318 46.6558C129.749 46.3221 129.004 46.1553 128.084 46.1553H123.885V62H121.529V44.2266H128.084C129.427 44.2266 130.562 44.4585 131.49 44.9224C132.418 45.3862 133.122 46.0291 133.602 46.8511C134.082 47.6649 134.322 48.5967 134.322 49.6465C134.322 50.7858 134.082 51.7583 133.602 52.564C133.122 53.3696 132.418 53.984 131.49 54.4072C130.562 54.8223 129.427 55.0298 128.084 55.0298ZM139.217 43.25V62H136.959V43.25H139.217ZM138.68 54.8955L137.74 54.8589C137.748 53.9556 137.883 53.1214 138.143 52.3564C138.403 51.5833 138.77 50.9119 139.242 50.3423C139.714 49.7726 140.275 49.3332 140.926 49.0239C141.585 48.7065 142.314 48.5479 143.111 48.5479C143.762 48.5479 144.348 48.6374 144.869 48.8164C145.39 48.9873 145.833 49.264 146.2 49.6465C146.574 50.029 146.859 50.5254 147.054 51.1357C147.25 51.738 147.347 52.4744 147.347 53.3452V62H145.077V53.3208C145.077 52.6291 144.975 52.0757 144.771 51.6606C144.568 51.2375 144.271 50.9323 143.88 50.7451C143.49 50.5498 143.01 50.4521 142.44 50.4521C141.878 50.4521 141.366 50.5701 140.902 50.8062C140.446 51.0422 140.051 51.3677 139.718 51.7827C139.392 52.1978 139.136 52.6738 138.949 53.2109C138.77 53.7399 138.68 54.3014 138.68 54.8955ZM155.88 62H152.169L152.193 60.0835H155.88C157.149 60.0835 158.207 59.819 159.054 59.29C159.9 58.7529 160.535 58.0042 160.958 57.0439C161.389 56.0755 161.605 54.9443 161.605 53.6504V52.564C161.605 51.5467 161.483 50.6434 161.239 49.854C160.995 49.0565 160.637 48.3851 160.165 47.8398C159.693 47.2865 159.115 46.8674 158.431 46.5825C157.756 46.2977 156.979 46.1553 156.1 46.1553H152.096V44.2266H156.1C157.263 44.2266 158.325 44.4219 159.286 44.8125C160.246 45.195 161.072 45.7524 161.764 46.4849C162.464 47.2091 163.001 48.0881 163.375 49.1216C163.749 50.147 163.937 51.3026 163.937 52.5884V53.6504C163.937 54.9362 163.749 56.0959 163.375 57.1294C163.001 58.1548 162.459 59.0296 161.751 59.7539C161.052 60.4782 160.205 61.0356 159.212 61.4263C158.228 61.8088 157.117 62 155.88 62ZM153.426 44.2266V62H151.07V44.2266H153.426ZM167.94 59.3145V61.1333C167.94 61.8739 167.753 62.6551 167.379 63.4771C167.005 64.3071 166.48 64.9989 165.804 65.5522L164.522 64.6611C164.783 64.3031 165.003 63.9368 165.182 63.5625C165.361 63.1963 165.495 62.8138 165.584 62.415C165.682 62.0244 165.731 61.6094 165.731 61.1699V59.3145H167.94ZM178.109 44.2266H180.392L186.214 58.7163L192.025 44.2266H194.32L187.093 62H185.311L178.109 44.2266ZM177.364 44.2266H179.378L179.708 55.0664V62H177.364V44.2266ZM193.038 44.2266H195.052V62H192.708V55.0664L193.038 44.2266ZM204 62H200.289L200.313 60.0835H204C205.27 60.0835 206.327 59.819 207.174 59.29C208.02 58.7529 208.655 58.0042 209.078 57.0439C209.509 56.0755 209.725 54.9443 209.725 53.6504V52.564C209.725 51.5467 209.603 50.6434 209.359 49.854C209.115 49.0565 208.757 48.3851 208.285 47.8398C207.813 47.2865 207.235 46.8674 206.551 46.5825C205.876 46.2977 205.099 46.1553 204.22 46.1553H200.216V44.2266H204.22C205.383 44.2266 206.445 44.4219 207.406 44.8125C208.366 45.195 209.192 45.7524 209.884 46.4849C210.584 47.2091 211.121 48.0881 211.495 49.1216C211.869 50.147 212.057 51.3026 212.057 52.5884V53.6504C212.057 54.9362 211.869 56.0959 211.495 57.1294C211.121 58.1548 210.58 59.0296 209.872 59.7539C209.172 60.4782 208.325 61.0356 207.333 61.4263C206.348 61.8088 205.237 62 204 62ZM201.546 44.2266V62H199.19V44.2266H201.546Z" fill="white"/>
<path d="M119.137 80.6543H116.857V79.7344H119.137C119.578 79.7344 119.936 79.6641 120.209 79.5234C120.482 79.3828 120.682 79.1875 120.807 78.9375C120.936 78.6875 121 78.4023 121 78.082C121 77.7891 120.936 77.5137 120.807 77.2559C120.682 76.998 120.482 76.791 120.209 76.6348C119.936 76.4746 119.578 76.3945 119.137 76.3945H117.121V84H115.99V75.4688H119.137C119.781 75.4688 120.326 75.5801 120.771 75.8027C121.217 76.0254 121.555 76.334 121.785 76.7285C122.016 77.1191 122.131 77.5664 122.131 78.0703C122.131 78.6172 122.016 79.084 121.785 79.4707C121.555 79.8574 121.217 80.1523 120.771 80.3555C120.326 80.5547 119.781 80.6543 119.137 80.6543ZM128.734 83.0801V84H124.469V83.0801H128.734ZM124.691 75.4688V84H123.561V75.4688H124.691ZM133.305 76.2246L130.48 84H129.326L132.578 75.4688H133.322L133.305 76.2246ZM135.672 84L132.842 76.2246L132.824 75.4688H133.568L136.832 84H135.672ZM135.525 80.8418V81.7676H130.732V80.8418H135.525ZM142.521 81.8438C142.521 81.6445 142.49 81.4688 142.428 81.3164C142.369 81.1602 142.264 81.0195 142.111 80.8945C141.963 80.7695 141.756 80.6504 141.49 80.5371C141.229 80.4238 140.896 80.3086 140.494 80.1914C140.072 80.0664 139.691 79.9277 139.352 79.7754C139.012 79.6191 138.721 79.4414 138.479 79.2422C138.236 79.043 138.051 78.8145 137.922 78.5566C137.793 78.2988 137.729 78.0039 137.729 77.6719C137.729 77.3398 137.797 77.0332 137.934 76.752C138.07 76.4707 138.266 76.2266 138.52 76.0195C138.777 75.8086 139.084 75.6445 139.439 75.5273C139.795 75.4102 140.191 75.3516 140.629 75.3516C141.27 75.3516 141.812 75.4746 142.258 75.7207C142.707 75.9629 143.049 76.2812 143.283 76.6758C143.518 77.0664 143.635 77.4844 143.635 77.9297H142.51C142.51 77.6094 142.441 77.3262 142.305 77.0801C142.168 76.8301 141.961 76.6348 141.684 76.4941C141.406 76.3496 141.055 76.2773 140.629 76.2773C140.227 76.2773 139.895 76.3379 139.633 76.459C139.371 76.5801 139.176 76.7441 139.047 76.9512C138.922 77.1582 138.859 77.3945 138.859 77.6602C138.859 77.8398 138.896 78.0039 138.971 78.1523C139.049 78.2969 139.168 78.4316 139.328 78.5566C139.492 78.6816 139.699 78.7969 139.949 78.9023C140.203 79.0078 140.506 79.1094 140.857 79.207C141.342 79.3438 141.76 79.4961 142.111 79.6641C142.463 79.832 142.752 80.0215 142.979 80.2324C143.209 80.4395 143.379 80.6758 143.488 80.9414C143.602 81.2031 143.658 81.5 143.658 81.832C143.658 82.1797 143.588 82.4941 143.447 82.7754C143.307 83.0566 143.105 83.2969 142.844 83.4961C142.582 83.6953 142.268 83.8496 141.9 83.959C141.537 84.0645 141.131 84.1172 140.682 84.1172C140.287 84.1172 139.898 84.0625 139.516 83.9531C139.137 83.8438 138.791 83.6797 138.479 83.4609C138.17 83.2422 137.922 82.9727 137.734 82.6523C137.551 82.3281 137.459 81.9531 137.459 81.5273H138.584C138.584 81.8203 138.641 82.0723 138.754 82.2832C138.867 82.4902 139.021 82.6621 139.217 82.7988C139.416 82.9355 139.641 83.0371 139.891 83.1035C140.145 83.166 140.408 83.1973 140.682 83.1973C141.076 83.1973 141.41 83.1426 141.684 83.0332C141.957 82.9238 142.164 82.7676 142.305 82.5645C142.449 82.3613 142.521 82.1211 142.521 81.8438ZM148.252 75.4688V84H147.139V75.4688H148.252ZM150.994 75.4688V76.3945H144.402V75.4688H150.994ZM153.473 75.4688V84H152.342V75.4688H153.473ZM160.68 81.2871H161.805C161.746 81.8262 161.592 82.3086 161.342 82.7344C161.092 83.1602 160.738 83.498 160.281 83.748C159.824 83.9941 159.254 84.1172 158.57 84.1172C158.07 84.1172 157.615 84.0234 157.205 83.8359C156.799 83.6484 156.449 83.3828 156.156 83.0391C155.863 82.6914 155.637 82.2754 155.477 81.791C155.32 81.3027 155.242 80.7598 155.242 80.1621V79.3125C155.242 78.7148 155.32 78.1738 155.477 77.6895C155.637 77.2012 155.865 76.7832 156.162 76.4355C156.463 76.0879 156.824 75.8203 157.246 75.6328C157.668 75.4453 158.143 75.3516 158.67 75.3516C159.314 75.3516 159.859 75.4727 160.305 75.7148C160.75 75.957 161.096 76.293 161.342 76.7227C161.592 77.1484 161.746 77.6426 161.805 78.2051H160.68C160.625 77.8066 160.523 77.4648 160.375 77.1797C160.227 76.8906 160.016 76.668 159.742 76.5117C159.469 76.3555 159.111 76.2773 158.67 76.2773C158.291 76.2773 157.957 76.3496 157.668 76.4941C157.383 76.6387 157.143 76.8438 156.947 77.1094C156.756 77.375 156.611 77.6934 156.514 78.0645C156.416 78.4355 156.367 78.8477 156.367 79.3008V80.1621C156.367 80.5801 156.41 80.9727 156.496 81.3398C156.586 81.707 156.721 82.0293 156.9 82.3066C157.08 82.584 157.309 82.8027 157.586 82.9629C157.863 83.1191 158.191 83.1973 158.57 83.1973C159.051 83.1973 159.434 83.1211 159.719 82.9688C160.004 82.8164 160.219 82.5977 160.363 82.3125C160.512 82.0273 160.617 81.6855 160.68 81.2871ZM170.869 81.8438C170.869 81.6445 170.838 81.4688 170.775 81.3164C170.717 81.1602 170.611 81.0195 170.459 80.8945C170.311 80.7695 170.104 80.6504 169.838 80.5371C169.576 80.4238 169.244 80.3086 168.842 80.1914C168.42 80.0664 168.039 79.9277 167.699 79.7754C167.359 79.6191 167.068 79.4414 166.826 79.2422C166.584 79.043 166.398 78.8145 166.27 78.5566C166.141 78.2988 166.076 78.0039 166.076 77.6719C166.076 77.3398 166.145 77.0332 166.281 76.752C166.418 76.4707 166.613 76.2266 166.867 76.0195C167.125 75.8086 167.432 75.6445 167.787 75.5273C168.143 75.4102 168.539 75.3516 168.977 75.3516C169.617 75.3516 170.16 75.4746 170.605 75.7207C171.055 75.9629 171.396 76.2812 171.631 76.6758C171.865 77.0664 171.982 77.4844 171.982 77.9297H170.857C170.857 77.6094 170.789 77.3262 170.652 77.0801C170.516 76.8301 170.309 76.6348 170.031 76.4941C169.754 76.3496 169.402 76.2773 168.977 76.2773C168.574 76.2773 168.242 76.3379 167.98 76.459C167.719 76.5801 167.523 76.7441 167.395 76.9512C167.27 77.1582 167.207 77.3945 167.207 77.6602C167.207 77.8398 167.244 78.0039 167.318 78.1523C167.396 78.2969 167.516 78.4316 167.676 78.5566C167.84 78.6816 168.047 78.7969 168.297 78.9023C168.551 79.0078 168.854 79.1094 169.205 79.207C169.689 79.3438 170.107 79.4961 170.459 79.6641C170.811 79.832 171.1 80.0215 171.326 80.2324C171.557 80.4395 171.727 80.6758 171.836 80.9414C171.949 81.2031 172.006 81.5 172.006 81.832C172.006 82.1797 171.936 82.4941 171.795 82.7754C171.654 83.0566 171.453 83.2969 171.191 83.4961C170.93 83.6953 170.615 83.8496 170.248 83.959C169.885 84.0645 169.479 84.1172 169.029 84.1172C168.635 84.1172 168.246 84.0625 167.863 83.9531C167.484 83.8438 167.139 83.6797 166.826 83.4609C166.518 83.2422 166.27 82.9727 166.082 82.6523C165.898 82.3281 165.807 81.9531 165.807 81.5273H166.932C166.932 81.8203 166.988 82.0723 167.102 82.2832C167.215 82.4902 167.369 82.6621 167.564 82.7988C167.764 82.9355 167.988 83.0371 168.238 83.1035C168.492 83.166 168.756 83.1973 169.029 83.1973C169.424 83.1973 169.758 83.1426 170.031 83.0332C170.305 82.9238 170.512 82.7676 170.652 82.5645C170.797 82.3613 170.869 82.1211 170.869 81.8438ZM178.328 75.4688H179.453V81.2402C179.453 81.8809 179.311 82.4141 179.025 82.8398C178.74 83.2656 178.361 83.5859 177.889 83.8008C177.42 84.0117 176.91 84.1172 176.359 84.1172C175.781 84.1172 175.258 84.0117 174.789 83.8008C174.324 83.5859 173.955 83.2656 173.682 82.8398C173.412 82.4141 173.277 81.8809 173.277 81.2402V75.4688H174.396V81.2402C174.396 81.6855 174.479 82.0527 174.643 82.3418C174.807 82.6309 175.035 82.8457 175.328 82.9863C175.625 83.127 175.969 83.1973 176.359 83.1973C176.754 83.1973 177.098 83.127 177.391 82.9863C177.688 82.8457 177.918 82.6309 178.082 82.3418C178.246 82.0527 178.328 81.6855 178.328 81.2402V75.4688ZM181.229 75.4688H184.053C184.693 75.4688 185.234 75.5664 185.676 75.7617C186.121 75.957 186.459 76.2461 186.689 76.6289C186.924 77.0078 187.041 77.4746 187.041 78.0293C187.041 78.4199 186.961 78.7773 186.801 79.1016C186.645 79.4219 186.418 79.6953 186.121 79.9219C185.828 80.1445 185.477 80.3105 185.066 80.4199L184.75 80.543H182.096L182.084 79.623H184.088C184.494 79.623 184.832 79.5527 185.102 79.4121C185.371 79.2676 185.574 79.0742 185.711 78.832C185.848 78.5898 185.916 78.3223 185.916 78.0293C185.916 77.7012 185.852 77.4141 185.723 77.168C185.594 76.9219 185.391 76.7324 185.113 76.5996C184.84 76.4629 184.486 76.3945 184.053 76.3945H182.359V84H181.229V75.4688ZM186.215 84L184.141 80.1328L185.318 80.127L187.422 83.9297V84H186.215ZM194.928 79.752V82.875C194.822 83.0312 194.654 83.207 194.424 83.4023C194.193 83.5938 193.875 83.7617 193.469 83.9062C193.066 84.0469 192.547 84.1172 191.91 84.1172C191.391 84.1172 190.912 84.0273 190.475 83.8477C190.041 83.6641 189.664 83.3984 189.344 83.0508C189.027 82.6992 188.781 82.2734 188.605 81.7734C188.434 81.2695 188.348 80.6992 188.348 80.0625V79.4004C188.348 78.7637 188.422 78.1953 188.57 77.6953C188.723 77.1953 188.945 76.7715 189.238 76.4238C189.531 76.0723 189.891 75.8066 190.316 75.627C190.742 75.4434 191.23 75.3516 191.781 75.3516C192.434 75.3516 192.979 75.4648 193.416 75.6914C193.857 75.9141 194.201 76.2227 194.447 76.6172C194.697 77.0117 194.857 77.4609 194.928 77.9648H193.797C193.746 77.6562 193.645 77.375 193.492 77.1211C193.344 76.8672 193.131 76.6641 192.854 76.5117C192.576 76.3555 192.219 76.2773 191.781 76.2773C191.387 76.2773 191.045 76.3496 190.756 76.4941C190.467 76.6387 190.229 76.8457 190.041 77.1152C189.854 77.3848 189.713 77.7109 189.619 78.0938C189.529 78.4766 189.484 78.9082 189.484 79.3887V80.0625C189.484 80.5547 189.541 80.9941 189.654 81.3809C189.771 81.7676 189.938 82.0977 190.152 82.3711C190.367 82.6406 190.623 82.8457 190.92 82.9863C191.221 83.127 191.553 83.1973 191.916 83.1973C192.318 83.1973 192.645 83.1641 192.895 83.0977C193.145 83.0273 193.34 82.9453 193.48 82.8516C193.621 82.7539 193.729 82.6621 193.803 82.5762V80.666H191.828V79.752H194.928ZM202.223 83.0801V84H197.705V83.0801H202.223ZM197.934 75.4688V84H196.803V75.4688H197.934ZM201.625 79.1367V80.0566H197.705V79.1367H201.625ZM202.164 75.4688V76.3945H197.705V75.4688H202.164ZM210.191 79.4648V80.0039C210.191 80.6445 210.111 81.2188 209.951 81.7266C209.791 82.2344 209.561 82.666 209.26 83.0215C208.959 83.377 208.598 83.6484 208.176 83.8359C207.758 84.0234 207.289 84.1172 206.77 84.1172C206.266 84.1172 205.803 84.0234 205.381 83.8359C204.963 83.6484 204.6 83.377 204.291 83.0215C203.986 82.666 203.75 82.2344 203.582 81.7266C203.414 81.2188 203.33 80.6445 203.33 80.0039V79.4648C203.33 78.8242 203.412 78.252 203.576 77.748C203.744 77.2402 203.98 76.8086 204.285 76.4531C204.59 76.0938 204.951 75.8203 205.369 75.6328C205.791 75.4453 206.254 75.3516 206.758 75.3516C207.277 75.3516 207.746 75.4453 208.164 75.6328C208.586 75.8203 208.947 76.0938 209.248 76.4531C209.553 76.8086 209.785 77.2402 209.945 77.748C210.109 78.252 210.191 78.8242 210.191 79.4648ZM209.072 80.0039V79.4531C209.072 78.9453 209.02 78.4961 208.914 78.1055C208.812 77.7148 208.662 77.3867 208.463 77.1211C208.264 76.8555 208.02 76.6543 207.73 76.5176C207.445 76.3809 207.121 76.3125 206.758 76.3125C206.406 76.3125 206.088 76.3809 205.803 76.5176C205.521 76.6543 205.279 76.8555 205.076 77.1211C204.877 77.3867 204.723 77.7148 204.613 78.1055C204.504 78.4961 204.449 78.9453 204.449 79.4531V80.0039C204.449 80.5156 204.504 80.9688 204.613 81.3633C204.723 81.7539 204.879 82.084 205.082 82.3535C205.289 82.6191 205.533 82.8203 205.814 82.957C206.1 83.0938 206.418 83.1621 206.77 83.1621C207.137 83.1621 207.463 83.0938 207.748 82.957C208.033 82.8203 208.273 82.6191 208.469 82.3535C208.668 82.084 208.818 81.7539 208.92 81.3633C209.021 80.9688 209.072 80.5156 209.072 80.0039ZM218.447 75.4688V84H217.311L213.016 77.4199V84H211.885V75.4688H213.016L217.328 82.0664V75.4688H218.447Z" fill="white"/>
</svg>
