<svg width="91" height="96" viewBox="0 0 91 96" fill="none" xmlns="http://www.w3.org/2000/svg">
<path d="M47.5992 43.6998L56.8992 69.5998H37.1992H37.0992L36.6992 70.7998H57.3992L64.2992 89.8998L64.4992 90.9998C64.4992 92.1998 63.4992 92.9998 61.4992 93.3998C59.4992 93.7998 55.7992 93.9998 50.3992 93.9998V95.0998H90.2992V93.9998C84.8992 93.9998 81.6992 93.6998 80.5992 93.1998C79.4992 92.6998 78.3992 90.8998 77.3992 87.9998L54.5992 26.2998" fill="white"/>
<path d="M36.5 70.7L13.5 7.10001C12.5 4.20001 11.4 2.5 10.2 1.9C9 1.3 5.6 1 0 1V0H39.3V1C34.3 1 30.9 1.2 29.1 1.7C27.3 2.2 26.3 3.10001 26.3 4.60001C26.3 5.20001 26.5 6.00001 26.8 7.10001L43.8 52.8" fill="white"/>
</svg>
