<svg width="1920" height="1080" viewBox="0 0 1920 1080" fill="none" xmlns="http://www.w3.org/2000/svg">
<g clip-path="url(#clip0_448_720)">
<rect width="1920" height="1080" fill="#10061C"/>
<rect width="1920" height="1662.14" fill="#0E0519"/>
<rect width="1920" height="1662.14" fill="#0E0519"/>
<rect y="26.5234" width="1920" height="2216.48" fill="#BAA6E1"/>
<rect y="641.868" width="259" height="267.003" fill="url(#paint0_linear_448_720)"/>
<rect y="293.526" width="259" height="410.229" fill="url(#paint1_linear_448_720)"/>
<rect x="259" y="498.641" width="226" height="410.229" fill="url(#paint2_linear_448_720)"/>
<rect x="1118" y="470.349" width="237" height="410.229" fill="url(#paint3_linear_448_720)"/>
<rect x="802" y="519.86" width="407" height="410.229" fill="url(#paint4_linear_448_720)"/>
<rect x="1513" y="498.641" width="407" height="410.229" fill="url(#paint5_linear_448_720)"/>
<rect x="1331" y="470.349" width="407" height="514.555" fill="url(#paint6_linear_448_720)"/>
<rect x="372" y="551.688" width="226" height="410.229" fill="url(#paint7_linear_448_720)"/>
<rect x="470" y="498.641" width="445" height="410.229" fill="url(#paint8_linear_448_720)"/>
<rect y="12.3776" width="183" height="364.255" fill="url(#paint9_linear_448_720)"/>
<rect x="362" y="249.32" width="173" height="364.255" fill="url(#paint10_linear_448_720)"/>
<rect x="1641" y="181.244" width="279" height="364.255" fill="url(#paint11_linear_448_720)"/>
<rect x="1501" y="249.32" width="173" height="364.255" fill="url(#paint12_linear_448_720)"/>
<rect x="1231" y="266.119" width="270" height="285.569" fill="url(#paint13_linear_448_720)"/>
<rect x="978" y="12.3776" width="303" height="620.649" fill="url(#paint14_linear_448_720)"/>
<rect x="853" y="12.3776" width="131" height="677.232" fill="url(#paint15_linear_448_720)"/>
<rect x="495" y="249.32" width="402" height="328.891" fill="url(#paint16_linear_448_720)"/>
<rect x="1601" y="26.5234" width="173" height="364.255" fill="url(#paint17_linear_448_720)"/>
<rect x="1281" y="12.3776" width="639" height="281.149" fill="url(#paint18_linear_448_720)"/>
<rect x="1077" y="12.3776" width="254" height="378.401" fill="url(#paint19_linear_448_720)"/>
<rect x="853" y="12.3776" width="282" height="307.672" fill="url(#paint20_linear_448_720)"/>
<rect x="167" y="26.5234" width="103" height="421.723" fill="url(#paint21_linear_448_720)"/>
<rect x="915" y="12.3776" width="22" height="378.401" fill="url(#paint22_linear_448_720)"/>
<rect x="577" y="12.3776" width="296" height="435.869" fill="url(#paint23_linear_448_720)"/>
<rect x="328" y="12.3776" width="337" height="337.732" fill="url(#paint24_linear_448_720)"/>
<rect x="218" y="12.3776" width="185" height="507.482" fill="url(#paint25_linear_448_720)"/>
</g>
<defs>
<linearGradient id="paint0_linear_448_720" x1="129.5" y1="641.868" x2="129.603" y2="996.759" gradientUnits="userSpaceOnUse">
<stop stop-color="#562B8B"/>
<stop offset="1" stop-color="#DCD0FF"/>
</linearGradient>
<linearGradient id="paint1_linear_448_720" x1="129.5" y1="293.526" x2="129.744" y2="838.79" gradientUnits="userSpaceOnUse">
<stop offset="0.328125" stop-color="#2A0852"/>
<stop offset="1" stop-color="#7946B8"/>
</linearGradient>
<linearGradient id="paint2_linear_448_720" x1="372" y1="498.641" x2="372.28" y2="1043.9" gradientUnits="userSpaceOnUse">
<stop stop-color="#562B8B"/>
<stop offset="1" stop-color="#DCD0FF"/>
</linearGradient>
<linearGradient id="paint3_linear_448_720" x1="1236.5" y1="470.349" x2="1236.77" y2="1015.61" gradientUnits="userSpaceOnUse">
<stop stop-color="#562B8B"/>
<stop offset="1" stop-color="#DCD0FF"/>
</linearGradient>
<linearGradient id="paint4_linear_448_720" x1="1005.5" y1="519.86" x2="1005.66" y2="1065.12" gradientUnits="userSpaceOnUse">
<stop stop-color="#562B8B"/>
<stop offset="1" stop-color="#DCD0FF"/>
</linearGradient>
<linearGradient id="paint5_linear_448_720" x1="1716.5" y1="498.641" x2="1716.66" y2="1043.9" gradientUnits="userSpaceOnUse">
<stop stop-color="#562B8B"/>
<stop offset="1" stop-color="#DCD0FF"/>
</linearGradient>
<linearGradient id="paint6_linear_448_720" x1="1534.5" y1="470.349" x2="1534.74" y2="1154.28" gradientUnits="userSpaceOnUse">
<stop stop-color="#562B8B"/>
<stop offset="1" stop-color="#DCD0FF"/>
</linearGradient>
<linearGradient id="paint7_linear_448_720" x1="485" y1="551.688" x2="485.28" y2="1096.95" gradientUnits="userSpaceOnUse">
<stop stop-color="#562B8B"/>
<stop offset="1" stop-color="#DCD0FF"/>
</linearGradient>
<linearGradient id="paint8_linear_448_720" x1="692.5" y1="498.641" x2="692.642" y2="1043.9" gradientUnits="userSpaceOnUse">
<stop stop-color="#562B8B"/>
<stop offset="1" stop-color="#DCD0FF"/>
</linearGradient>
<linearGradient id="paint9_linear_448_720" x1="91.5" y1="12.3776" x2="91.7722" y2="496.534" gradientUnits="userSpaceOnUse">
<stop stop-color="#0E0519"/>
<stop offset="1" stop-color="#36096C"/>
</linearGradient>
<linearGradient id="paint10_linear_448_720" x1="448.5" y1="249.32" x2="448.788" y2="733.477" gradientUnits="userSpaceOnUse">
<stop offset="0.328125" stop-color="#2A0852"/>
<stop offset="1" stop-color="#7946B8"/>
</linearGradient>
<linearGradient id="paint11_linear_448_720" x1="1780.5" y1="181.244" x2="1780.68" y2="665.4" gradientUnits="userSpaceOnUse">
<stop offset="0.328125" stop-color="#2A0852"/>
<stop offset="1" stop-color="#7946B8"/>
</linearGradient>
<linearGradient id="paint12_linear_448_720" x1="1587.5" y1="249.32" x2="1587.79" y2="733.477" gradientUnits="userSpaceOnUse">
<stop offset="0.328125" stop-color="#2A0852"/>
<stop offset="1" stop-color="#7946B8"/>
</linearGradient>
<linearGradient id="paint13_linear_448_720" x1="1366" y1="266.119" x2="1366.11" y2="645.688" gradientUnits="userSpaceOnUse">
<stop offset="0.328125" stop-color="#2A0852"/>
<stop offset="1" stop-color="#7946B8"/>
</linearGradient>
<linearGradient id="paint14_linear_448_720" x1="1129.5" y1="12.3776" x2="1129.98" y2="837.324" gradientUnits="userSpaceOnUse">
<stop offset="0.328125" stop-color="#2A0852"/>
<stop offset="1" stop-color="#7946B8"/>
</linearGradient>
<linearGradient id="paint15_linear_448_720" x1="918.5" y1="12.3776" x2="919.814" y2="912.531" gradientUnits="userSpaceOnUse">
<stop offset="0.328125" stop-color="#2A0852"/>
<stop offset="1" stop-color="#7946B8"/>
</linearGradient>
<linearGradient id="paint16_linear_448_720" x1="696" y1="249.32" x2="696.101" y2="686.471" gradientUnits="userSpaceOnUse">
<stop offset="0.328125" stop-color="#2A0852"/>
<stop offset="1" stop-color="#7946B8"/>
</linearGradient>
<linearGradient id="paint17_linear_448_720" x1="1687.5" y1="26.5234" x2="1687.79" y2="510.68" gradientUnits="userSpaceOnUse">
<stop stop-color="#0E0519"/>
<stop offset="1" stop-color="#36096C"/>
</linearGradient>
<linearGradient id="paint18_linear_448_720" x1="1600.5" y1="12.3776" x2="1600.55" y2="386.071" gradientUnits="userSpaceOnUse">
<stop stop-color="#0E0519"/>
<stop offset="1" stop-color="#36096C"/>
</linearGradient>
<linearGradient id="paint19_linear_448_720" x1="1204" y1="12.3776" x2="1204.21" y2="515.336" gradientUnits="userSpaceOnUse">
<stop stop-color="#0E0519"/>
<stop offset="1" stop-color="#36096C"/>
</linearGradient>
<linearGradient id="paint20_linear_448_720" x1="994" y1="12.3776" x2="994.126" y2="421.325" gradientUnits="userSpaceOnUse">
<stop stop-color="#0E0519"/>
<stop offset="1" stop-color="#36096C"/>
</linearGradient>
<linearGradient id="paint21_linear_448_720" x1="218.5" y1="26.5234" x2="219.148" y2="587.063" gradientUnits="userSpaceOnUse">
<stop stop-color="#0E0519"/>
<stop offset="1" stop-color="#36096C"/>
</linearGradient>
<linearGradient id="paint22_linear_448_720" x1="926" y1="12.3776" x2="928.443" y2="515.324" gradientUnits="userSpaceOnUse">
<stop stop-color="#0E0519"/>
<stop offset="1" stop-color="#36096C"/>
</linearGradient>
<linearGradient id="paint23_linear_448_720" x1="725" y1="12.3776" x2="725.241" y2="591.72" gradientUnits="userSpaceOnUse">
<stop stop-color="#0E0519"/>
<stop offset="1" stop-color="#36096C"/>
</linearGradient>
<linearGradient id="paint24_linear_448_720" x1="496.5" y1="12.3776" x2="496.627" y2="461.28" gradientUnits="userSpaceOnUse">
<stop stop-color="#0E0519"/>
<stop offset="1" stop-color="#36096C"/>
</linearGradient>
<linearGradient id="paint25_linear_448_720" x1="310.5" y1="12.3776" x2="311.023" y2="686.906" gradientUnits="userSpaceOnUse">
<stop stop-color="#0E0519"/>
<stop offset="1" stop-color="#36096C"/>
</linearGradient>
<clipPath id="clip0_448_720">
<rect width="1920" height="1080" fill="white"/>
</clipPath>
</defs>
</svg>
