<svg width="334" height="367" viewBox="0 0 334 367" fill="none" xmlns="http://www.w3.org/2000/svg">
<path d="M5.97427 3.624C5.97427 4.464 5.68627 5.148 5.11027 5.676C4.55827 6.204 3.88627 6.468 3.09427 6.468C2.27827 6.468 1.59427 6.204 1.04227 5.676C0.490273 5.148 0.214273 4.464 0.214273 3.624C0.214273 2.784 0.490273 2.1 1.04227 1.572C1.59427 1.02 2.27827 0.743998 3.09427 0.743998C3.88627 0.743998 4.55827 1.02 5.11027 1.572C5.68627 2.1 5.97427 2.784 5.97427 3.624ZM38.7568 3.624C38.7568 4.464 38.4688 5.148 37.8928 5.676C37.3408 6.204 36.6688 6.468 35.8768 6.468C35.0608 6.468 34.3768 6.204 33.8248 5.676C33.2728 5.148 32.9968 4.464 32.9968 3.624C32.9968 2.784 33.2728 2.1 33.8248 1.572C34.3768 1.02 35.0608 0.743998 35.8768 0.743998C36.6688 0.743998 37.3408 1.02 37.8928 1.572C38.4688 2.1 38.7568 2.784 38.7568 3.624ZM71.5393 3.624C71.5393 4.464 71.2513 5.148 70.6753 5.676C70.1233 6.204 69.4513 6.468 68.6593 6.468C67.8433 6.468 67.1593 6.204 66.6073 5.676C66.0553 5.148 65.7793 4.464 65.7793 3.624C65.7793 2.784 66.0553 2.1 66.6073 1.572C67.1593 1.02 67.8433 0.743998 68.6593 0.743998C69.4513 0.743998 70.1233 1.02 70.6753 1.572C71.2513 2.1 71.5393 2.784 71.5393 3.624ZM104.322 3.624C104.322 4.464 104.034 5.148 103.458 5.676C102.906 6.204 102.234 6.468 101.442 6.468C100.626 6.468 99.9418 6.204 99.3898 5.676C98.8378 5.148 98.5618 4.464 98.5618 3.624C98.5618 2.784 98.8378 2.1 99.3898 1.572C99.9418 1.02 100.626 0.743998 101.442 0.743998C102.234 0.743998 102.906 1.02 103.458 1.572C104.034 2.1 104.322 2.784 104.322 3.624ZM137.104 3.624C137.104 4.464 136.816 5.148 136.24 5.676C135.688 6.204 135.016 6.468 134.224 6.468C133.408 6.468 132.724 6.204 132.172 5.676C131.62 5.148 131.344 4.464 131.344 3.624C131.344 2.784 131.62 2.1 132.172 1.572C132.724 1.02 133.408 0.743998 134.224 0.743998C135.016 0.743998 135.688 1.02 136.24 1.572C136.816 2.1 137.104 2.784 137.104 3.624ZM169.887 3.624C169.887 4.464 169.599 5.148 169.023 5.676C168.471 6.204 167.799 6.468 167.007 6.468C166.191 6.468 165.507 6.204 164.955 5.676C164.403 5.148 164.127 4.464 164.127 3.624C164.127 2.784 164.403 2.1 164.955 1.572C165.507 1.02 166.191 0.743998 167.007 0.743998C167.799 0.743998 168.471 1.02 169.023 1.572C169.599 2.1 169.887 2.784 169.887 3.624ZM202.669 3.624C202.669 4.464 202.381 5.148 201.805 5.676C201.253 6.204 200.581 6.468 199.789 6.468C198.973 6.468 198.289 6.204 197.737 5.676C197.185 5.148 196.909 4.464 196.909 3.624C196.909 2.784 197.185 2.1 197.737 1.572C198.289 1.02 198.973 0.743998 199.789 0.743998C200.581 0.743998 201.253 1.02 201.805 1.572C202.381 2.1 202.669 2.784 202.669 3.624ZM235.452 3.624C235.452 4.464 235.164 5.148 234.588 5.676C234.036 6.204 233.364 6.468 232.572 6.468C231.756 6.468 231.072 6.204 230.52 5.676C229.968 5.148 229.692 4.464 229.692 3.624C229.692 2.784 229.968 2.1 230.52 1.572C231.072 1.02 231.756 0.743998 232.572 0.743998C233.364 0.743998 234.036 1.02 234.588 1.572C235.164 2.1 235.452 2.784 235.452 3.624ZM268.234 3.624C268.234 4.464 267.946 5.148 267.37 5.676C266.818 6.204 266.146 6.468 265.354 6.468C264.538 6.468 263.854 6.204 263.302 5.676C262.75 5.148 262.474 4.464 262.474 3.624C262.474 2.784 262.75 2.1 263.302 1.572C263.854 1.02 264.538 0.743998 265.354 0.743998C266.146 0.743998 266.818 1.02 267.37 1.572C267.946 2.1 268.234 2.784 268.234 3.624ZM301.017 3.624C301.017 4.464 300.729 5.148 300.153 5.676C299.601 6.204 298.929 6.468 298.137 6.468C297.321 6.468 296.637 6.204 296.085 5.676C295.533 5.148 295.257 4.464 295.257 3.624C295.257 2.784 295.533 2.1 296.085 1.572C296.637 1.02 297.321 0.743998 298.137 0.743998C298.929 0.743998 299.601 1.02 300.153 1.572C300.729 2.1 301.017 2.784 301.017 3.624ZM333.799 3.624C333.799 4.464 333.511 5.148 332.935 5.676C332.383 6.204 331.711 6.468 330.919 6.468C330.103 6.468 329.419 6.204 328.867 5.676C328.315 5.148 328.039 4.464 328.039 3.624C328.039 2.784 328.315 2.1 328.867 1.572C329.419 1.02 330.103 0.743998 330.919 0.743998C331.711 0.743998 332.383 1.02 332.935 1.572C333.511 2.1 333.799 2.784 333.799 3.624ZM5.97427 48.624C5.97427 49.464 5.68627 50.148 5.11027 50.676C4.55827 51.204 3.88627 51.468 3.09427 51.468C2.27827 51.468 1.59427 51.204 1.04227 50.676C0.490273 50.148 0.214273 49.464 0.214273 48.624C0.214273 47.784 0.490273 47.1 1.04227 46.572C1.59427 46.02 2.27827 45.744 3.09427 45.744C3.88627 45.744 4.55827 46.02 5.11027 46.572C5.68627 47.1 5.97427 47.784 5.97427 48.624ZM38.7568 48.624C38.7568 49.464 38.4688 50.148 37.8928 50.676C37.3408 51.204 36.6688 51.468 35.8768 51.468C35.0608 51.468 34.3768 51.204 33.8248 50.676C33.2728 50.148 32.9968 49.464 32.9968 48.624C32.9968 47.784 33.2728 47.1 33.8248 46.572C34.3768 46.02 35.0608 45.744 35.8768 45.744C36.6688 45.744 37.3408 46.02 37.8928 46.572C38.4688 47.1 38.7568 47.784 38.7568 48.624ZM71.5393 48.624C71.5393 49.464 71.2513 50.148 70.6753 50.676C70.1233 51.204 69.4513 51.468 68.6593 51.468C67.8433 51.468 67.1593 51.204 66.6073 50.676C66.0553 50.148 65.7793 49.464 65.7793 48.624C65.7793 47.784 66.0553 47.1 66.6073 46.572C67.1593 46.02 67.8433 45.744 68.6593 45.744C69.4513 45.744 70.1233 46.02 70.6753 46.572C71.2513 47.1 71.5393 47.784 71.5393 48.624ZM104.322 48.624C104.322 49.464 104.034 50.148 103.458 50.676C102.906 51.204 102.234 51.468 101.442 51.468C100.626 51.468 99.9418 51.204 99.3898 50.676C98.8378 50.148 98.5618 49.464 98.5618 48.624C98.5618 47.784 98.8378 47.1 99.3898 46.572C99.9418 46.02 100.626 45.744 101.442 45.744C102.234 45.744 102.906 46.02 103.458 46.572C104.034 47.1 104.322 47.784 104.322 48.624ZM137.104 48.624C137.104 49.464 136.816 50.148 136.24 50.676C135.688 51.204 135.016 51.468 134.224 51.468C133.408 51.468 132.724 51.204 132.172 50.676C131.62 50.148 131.344 49.464 131.344 48.624C131.344 47.784 131.62 47.1 132.172 46.572C132.724 46.02 133.408 45.744 134.224 45.744C135.016 45.744 135.688 46.02 136.24 46.572C136.816 47.1 137.104 47.784 137.104 48.624ZM169.887 48.624C169.887 49.464 169.599 50.148 169.023 50.676C168.471 51.204 167.799 51.468 167.007 51.468C166.191 51.468 165.507 51.204 164.955 50.676C164.403 50.148 164.127 49.464 164.127 48.624C164.127 47.784 164.403 47.1 164.955 46.572C165.507 46.02 166.191 45.744 167.007 45.744C167.799 45.744 168.471 46.02 169.023 46.572C169.599 47.1 169.887 47.784 169.887 48.624ZM202.669 48.624C202.669 49.464 202.381 50.148 201.805 50.676C201.253 51.204 200.581 51.468 199.789 51.468C198.973 51.468 198.289 51.204 197.737 50.676C197.185 50.148 196.909 49.464 196.909 48.624C196.909 47.784 197.185 47.1 197.737 46.572C198.289 46.02 198.973 45.744 199.789 45.744C200.581 45.744 201.253 46.02 201.805 46.572C202.381 47.1 202.669 47.784 202.669 48.624ZM235.452 48.624C235.452 49.464 235.164 50.148 234.588 50.676C234.036 51.204 233.364 51.468 232.572 51.468C231.756 51.468 231.072 51.204 230.52 50.676C229.968 50.148 229.692 49.464 229.692 48.624C229.692 47.784 229.968 47.1 230.52 46.572C231.072 46.02 231.756 45.744 232.572 45.744C233.364 45.744 234.036 46.02 234.588 46.572C235.164 47.1 235.452 47.784 235.452 48.624ZM268.234 48.624C268.234 49.464 267.946 50.148 267.37 50.676C266.818 51.204 266.146 51.468 265.354 51.468C264.538 51.468 263.854 51.204 263.302 50.676C262.75 50.148 262.474 49.464 262.474 48.624C262.474 47.784 262.75 47.1 263.302 46.572C263.854 46.02 264.538 45.744 265.354 45.744C266.146 45.744 266.818 46.02 267.37 46.572C267.946 47.1 268.234 47.784 268.234 48.624ZM301.017 48.624C301.017 49.464 300.729 50.148 300.153 50.676C299.601 51.204 298.929 51.468 298.137 51.468C297.321 51.468 296.637 51.204 296.085 50.676C295.533 50.148 295.257 49.464 295.257 48.624C295.257 47.784 295.533 47.1 296.085 46.572C296.637 46.02 297.321 45.744 298.137 45.744C298.929 45.744 299.601 46.02 300.153 46.572C300.729 47.1 301.017 47.784 301.017 48.624ZM333.799 48.624C333.799 49.464 333.511 50.148 332.935 50.676C332.383 51.204 331.711 51.468 330.919 51.468C330.103 51.468 329.419 51.204 328.867 50.676C328.315 50.148 328.039 49.464 328.039 48.624C328.039 47.784 328.315 47.1 328.867 46.572C329.419 46.02 330.103 45.744 330.919 45.744C331.711 45.744 332.383 46.02 332.935 46.572C333.511 47.1 333.799 47.784 333.799 48.624ZM5.97427 93.624C5.97427 94.464 5.68627 95.148 5.11027 95.676C4.55827 96.204 3.88627 96.468 3.09427 96.468C2.27827 96.468 1.59427 96.204 1.04227 95.676C0.490273 95.148 0.214273 94.464 0.214273 93.624C0.214273 92.784 0.490273 92.1 1.04227 91.572C1.59427 91.02 2.27827 90.744 3.09427 90.744C3.88627 90.744 4.55827 91.02 5.11027 91.572C5.68627 92.1 5.97427 92.784 5.97427 93.624ZM38.7568 93.624C38.7568 94.464 38.4688 95.148 37.8928 95.676C37.3408 96.204 36.6688 96.468 35.8768 96.468C35.0608 96.468 34.3768 96.204 33.8248 95.676C33.2728 95.148 32.9968 94.464 32.9968 93.624C32.9968 92.784 33.2728 92.1 33.8248 91.572C34.3768 91.02 35.0608 90.744 35.8768 90.744C36.6688 90.744 37.3408 91.02 37.8928 91.572C38.4688 92.1 38.7568 92.784 38.7568 93.624ZM71.5393 93.624C71.5393 94.464 71.2513 95.148 70.6753 95.676C70.1233 96.204 69.4513 96.468 68.6593 96.468C67.8433 96.468 67.1593 96.204 66.6073 95.676C66.0553 95.148 65.7793 94.464 65.7793 93.624C65.7793 92.784 66.0553 92.1 66.6073 91.572C67.1593 91.02 67.8433 90.744 68.6593 90.744C69.4513 90.744 70.1233 91.02 70.6753 91.572C71.2513 92.1 71.5393 92.784 71.5393 93.624ZM104.322 93.624C104.322 94.464 104.034 95.148 103.458 95.676C102.906 96.204 102.234 96.468 101.442 96.468C100.626 96.468 99.9418 96.204 99.3898 95.676C98.8378 95.148 98.5618 94.464 98.5618 93.624C98.5618 92.784 98.8378 92.1 99.3898 91.572C99.9418 91.02 100.626 90.744 101.442 90.744C102.234 90.744 102.906 91.02 103.458 91.572C104.034 92.1 104.322 92.784 104.322 93.624ZM137.104 93.624C137.104 94.464 136.816 95.148 136.24 95.676C135.688 96.204 135.016 96.468 134.224 96.468C133.408 96.468 132.724 96.204 132.172 95.676C131.62 95.148 131.344 94.464 131.344 93.624C131.344 92.784 131.62 92.1 132.172 91.572C132.724 91.02 133.408 90.744 134.224 90.744C135.016 90.744 135.688 91.02 136.24 91.572C136.816 92.1 137.104 92.784 137.104 93.624ZM169.887 93.624C169.887 94.464 169.599 95.148 169.023 95.676C168.471 96.204 167.799 96.468 167.007 96.468C166.191 96.468 165.507 96.204 164.955 95.676C164.403 95.148 164.127 94.464 164.127 93.624C164.127 92.784 164.403 92.1 164.955 91.572C165.507 91.02 166.191 90.744 167.007 90.744C167.799 90.744 168.471 91.02 169.023 91.572C169.599 92.1 169.887 92.784 169.887 93.624ZM202.669 93.624C202.669 94.464 202.381 95.148 201.805 95.676C201.253 96.204 200.581 96.468 199.789 96.468C198.973 96.468 198.289 96.204 197.737 95.676C197.185 95.148 196.909 94.464 196.909 93.624C196.909 92.784 197.185 92.1 197.737 91.572C198.289 91.02 198.973 90.744 199.789 90.744C200.581 90.744 201.253 91.02 201.805 91.572C202.381 92.1 202.669 92.784 202.669 93.624ZM235.452 93.624C235.452 94.464 235.164 95.148 234.588 95.676C234.036 96.204 233.364 96.468 232.572 96.468C231.756 96.468 231.072 96.204 230.52 95.676C229.968 95.148 229.692 94.464 229.692 93.624C229.692 92.784 229.968 92.1 230.52 91.572C231.072 91.02 231.756 90.744 232.572 90.744C233.364 90.744 234.036 91.02 234.588 91.572C235.164 92.1 235.452 92.784 235.452 93.624ZM268.234 93.624C268.234 94.464 267.946 95.148 267.37 95.676C266.818 96.204 266.146 96.468 265.354 96.468C264.538 96.468 263.854 96.204 263.302 95.676C262.75 95.148 262.474 94.464 262.474 93.624C262.474 92.784 262.75 92.1 263.302 91.572C263.854 91.02 264.538 90.744 265.354 90.744C266.146 90.744 266.818 91.02 267.37 91.572C267.946 92.1 268.234 92.784 268.234 93.624ZM301.017 93.624C301.017 94.464 300.729 95.148 300.153 95.676C299.601 96.204 298.929 96.468 298.137 96.468C297.321 96.468 296.637 96.204 296.085 95.676C295.533 95.148 295.257 94.464 295.257 93.624C295.257 92.784 295.533 92.1 296.085 91.572C296.637 91.02 297.321 90.744 298.137 90.744C298.929 90.744 299.601 91.02 300.153 91.572C300.729 92.1 301.017 92.784 301.017 93.624ZM333.799 93.624C333.799 94.464 333.511 95.148 332.935 95.676C332.383 96.204 331.711 96.468 330.919 96.468C330.103 96.468 329.419 96.204 328.867 95.676C328.315 95.148 328.039 94.464 328.039 93.624C328.039 92.784 328.315 92.1 328.867 91.572C329.419 91.02 330.103 90.744 330.919 90.744C331.711 90.744 332.383 91.02 332.935 91.572C333.511 92.1 333.799 92.784 333.799 93.624ZM5.97427 138.624C5.97427 139.464 5.68627 140.148 5.11027 140.676C4.55827 141.204 3.88627 141.468 3.09427 141.468C2.27827 141.468 1.59427 141.204 1.04227 140.676C0.490273 140.148 0.214273 139.464 0.214273 138.624C0.214273 137.784 0.490273 137.1 1.04227 136.572C1.59427 136.02 2.27827 135.744 3.09427 135.744C3.88627 135.744 4.55827 136.02 5.11027 136.572C5.68627 137.1 5.97427 137.784 5.97427 138.624ZM38.7568 138.624C38.7568 139.464 38.4688 140.148 37.8928 140.676C37.3408 141.204 36.6688 141.468 35.8768 141.468C35.0608 141.468 34.3768 141.204 33.8248 140.676C33.2728 140.148 32.9968 139.464 32.9968 138.624C32.9968 137.784 33.2728 137.1 33.8248 136.572C34.3768 136.02 35.0608 135.744 35.8768 135.744C36.6688 135.744 37.3408 136.02 37.8928 136.572C38.4688 137.1 38.7568 137.784 38.7568 138.624ZM71.5393 138.624C71.5393 139.464 71.2513 140.148 70.6753 140.676C70.1233 141.204 69.4513 141.468 68.6593 141.468C67.8433 141.468 67.1593 141.204 66.6073 140.676C66.0553 140.148 65.7793 139.464 65.7793 138.624C65.7793 137.784 66.0553 137.1 66.6073 136.572C67.1593 136.02 67.8433 135.744 68.6593 135.744C69.4513 135.744 70.1233 136.02 70.6753 136.572C71.2513 137.1 71.5393 137.784 71.5393 138.624ZM104.322 138.624C104.322 139.464 104.034 140.148 103.458 140.676C102.906 141.204 102.234 141.468 101.442 141.468C100.626 141.468 99.9418 141.204 99.3898 140.676C98.8378 140.148 98.5618 139.464 98.5618 138.624C98.5618 137.784 98.8378 137.1 99.3898 136.572C99.9418 136.02 100.626 135.744 101.442 135.744C102.234 135.744 102.906 136.02 103.458 136.572C104.034 137.1 104.322 137.784 104.322 138.624ZM137.104 138.624C137.104 139.464 136.816 140.148 136.24 140.676C135.688 141.204 135.016 141.468 134.224 141.468C133.408 141.468 132.724 141.204 132.172 140.676C131.62 140.148 131.344 139.464 131.344 138.624C131.344 137.784 131.62 137.1 132.172 136.572C132.724 136.02 133.408 135.744 134.224 135.744C135.016 135.744 135.688 136.02 136.24 136.572C136.816 137.1 137.104 137.784 137.104 138.624ZM169.887 138.624C169.887 139.464 169.599 140.148 169.023 140.676C168.471 141.204 167.799 141.468 167.007 141.468C166.191 141.468 165.507 141.204 164.955 140.676C164.403 140.148 164.127 139.464 164.127 138.624C164.127 137.784 164.403 137.1 164.955 136.572C165.507 136.02 166.191 135.744 167.007 135.744C167.799 135.744 168.471 136.02 169.023 136.572C169.599 137.1 169.887 137.784 169.887 138.624ZM202.669 138.624C202.669 139.464 202.381 140.148 201.805 140.676C201.253 141.204 200.581 141.468 199.789 141.468C198.973 141.468 198.289 141.204 197.737 140.676C197.185 140.148 196.909 139.464 196.909 138.624C196.909 137.784 197.185 137.1 197.737 136.572C198.289 136.02 198.973 135.744 199.789 135.744C200.581 135.744 201.253 136.02 201.805 136.572C202.381 137.1 202.669 137.784 202.669 138.624ZM235.452 138.624C235.452 139.464 235.164 140.148 234.588 140.676C234.036 141.204 233.364 141.468 232.572 141.468C231.756 141.468 231.072 141.204 230.52 140.676C229.968 140.148 229.692 139.464 229.692 138.624C229.692 137.784 229.968 137.1 230.52 136.572C231.072 136.02 231.756 135.744 232.572 135.744C233.364 135.744 234.036 136.02 234.588 136.572C235.164 137.1 235.452 137.784 235.452 138.624ZM268.234 138.624C268.234 139.464 267.946 140.148 267.37 140.676C266.818 141.204 266.146 141.468 265.354 141.468C264.538 141.468 263.854 141.204 263.302 140.676C262.75 140.148 262.474 139.464 262.474 138.624C262.474 137.784 262.75 137.1 263.302 136.572C263.854 136.02 264.538 135.744 265.354 135.744C266.146 135.744 266.818 136.02 267.37 136.572C267.946 137.1 268.234 137.784 268.234 138.624ZM301.017 138.624C301.017 139.464 300.729 140.148 300.153 140.676C299.601 141.204 298.929 141.468 298.137 141.468C297.321 141.468 296.637 141.204 296.085 140.676C295.533 140.148 295.257 139.464 295.257 138.624C295.257 137.784 295.533 137.1 296.085 136.572C296.637 136.02 297.321 135.744 298.137 135.744C298.929 135.744 299.601 136.02 300.153 136.572C300.729 137.1 301.017 137.784 301.017 138.624ZM333.799 138.624C333.799 139.464 333.511 140.148 332.935 140.676C332.383 141.204 331.711 141.468 330.919 141.468C330.103 141.468 329.419 141.204 328.867 140.676C328.315 140.148 328.039 139.464 328.039 138.624C328.039 137.784 328.315 137.1 328.867 136.572C329.419 136.02 330.103 135.744 330.919 135.744C331.711 135.744 332.383 136.02 332.935 136.572C333.511 137.1 333.799 137.784 333.799 138.624ZM5.97427 183.624C5.97427 184.464 5.68627 185.148 5.11027 185.676C4.55827 186.204 3.88627 186.468 3.09427 186.468C2.27827 186.468 1.59427 186.204 1.04227 185.676C0.490273 185.148 0.214273 184.464 0.214273 183.624C0.214273 182.784 0.490273 182.1 1.04227 181.572C1.59427 181.02 2.27827 180.744 3.09427 180.744C3.88627 180.744 4.55827 181.02 5.11027 181.572C5.68627 182.1 5.97427 182.784 5.97427 183.624ZM38.7568 183.624C38.7568 184.464 38.4688 185.148 37.8928 185.676C37.3408 186.204 36.6688 186.468 35.8768 186.468C35.0608 186.468 34.3768 186.204 33.8248 185.676C33.2728 185.148 32.9968 184.464 32.9968 183.624C32.9968 182.784 33.2728 182.1 33.8248 181.572C34.3768 181.02 35.0608 180.744 35.8768 180.744C36.6688 180.744 37.3408 181.02 37.8928 181.572C38.4688 182.1 38.7568 182.784 38.7568 183.624ZM71.5393 183.624C71.5393 184.464 71.2513 185.148 70.6753 185.676C70.1233 186.204 69.4513 186.468 68.6593 186.468C67.8433 186.468 67.1593 186.204 66.6073 185.676C66.0553 185.148 65.7793 184.464 65.7793 183.624C65.7793 182.784 66.0553 182.1 66.6073 181.572C67.1593 181.02 67.8433 180.744 68.6593 180.744C69.4513 180.744 70.1233 181.02 70.6753 181.572C71.2513 182.1 71.5393 182.784 71.5393 183.624ZM104.322 183.624C104.322 184.464 104.034 185.148 103.458 185.676C102.906 186.204 102.234 186.468 101.442 186.468C100.626 186.468 99.9418 186.204 99.3898 185.676C98.8378 185.148 98.5618 184.464 98.5618 183.624C98.5618 182.784 98.8378 182.1 99.3898 181.572C99.9418 181.02 100.626 180.744 101.442 180.744C102.234 180.744 102.906 181.02 103.458 181.572C104.034 182.1 104.322 182.784 104.322 183.624ZM137.104 183.624C137.104 184.464 136.816 185.148 136.24 185.676C135.688 186.204 135.016 186.468 134.224 186.468C133.408 186.468 132.724 186.204 132.172 185.676C131.62 185.148 131.344 184.464 131.344 183.624C131.344 182.784 131.62 182.1 132.172 181.572C132.724 181.02 133.408 180.744 134.224 180.744C135.016 180.744 135.688 181.02 136.24 181.572C136.816 182.1 137.104 182.784 137.104 183.624ZM169.887 183.624C169.887 184.464 169.599 185.148 169.023 185.676C168.471 186.204 167.799 186.468 167.007 186.468C166.191 186.468 165.507 186.204 164.955 185.676C164.403 185.148 164.127 184.464 164.127 183.624C164.127 182.784 164.403 182.1 164.955 181.572C165.507 181.02 166.191 180.744 167.007 180.744C167.799 180.744 168.471 181.02 169.023 181.572C169.599 182.1 169.887 182.784 169.887 183.624ZM202.669 183.624C202.669 184.464 202.381 185.148 201.805 185.676C201.253 186.204 200.581 186.468 199.789 186.468C198.973 186.468 198.289 186.204 197.737 185.676C197.185 185.148 196.909 184.464 196.909 183.624C196.909 182.784 197.185 182.1 197.737 181.572C198.289 181.02 198.973 180.744 199.789 180.744C200.581 180.744 201.253 181.02 201.805 181.572C202.381 182.1 202.669 182.784 202.669 183.624ZM235.452 183.624C235.452 184.464 235.164 185.148 234.588 185.676C234.036 186.204 233.364 186.468 232.572 186.468C231.756 186.468 231.072 186.204 230.52 185.676C229.968 185.148 229.692 184.464 229.692 183.624C229.692 182.784 229.968 182.1 230.52 181.572C231.072 181.02 231.756 180.744 232.572 180.744C233.364 180.744 234.036 181.02 234.588 181.572C235.164 182.1 235.452 182.784 235.452 183.624ZM268.234 183.624C268.234 184.464 267.946 185.148 267.37 185.676C266.818 186.204 266.146 186.468 265.354 186.468C264.538 186.468 263.854 186.204 263.302 185.676C262.75 185.148 262.474 184.464 262.474 183.624C262.474 182.784 262.75 182.1 263.302 181.572C263.854 181.02 264.538 180.744 265.354 180.744C266.146 180.744 266.818 181.02 267.37 181.572C267.946 182.1 268.234 182.784 268.234 183.624ZM301.017 183.624C301.017 184.464 300.729 185.148 300.153 185.676C299.601 186.204 298.929 186.468 298.137 186.468C297.321 186.468 296.637 186.204 296.085 185.676C295.533 185.148 295.257 184.464 295.257 183.624C295.257 182.784 295.533 182.1 296.085 181.572C296.637 181.02 297.321 180.744 298.137 180.744C298.929 180.744 299.601 181.02 300.153 181.572C300.729 182.1 301.017 182.784 301.017 183.624ZM333.799 183.624C333.799 184.464 333.511 185.148 332.935 185.676C332.383 186.204 331.711 186.468 330.919 186.468C330.103 186.468 329.419 186.204 328.867 185.676C328.315 185.148 328.039 184.464 328.039 183.624C328.039 182.784 328.315 182.1 328.867 181.572C329.419 181.02 330.103 180.744 330.919 180.744C331.711 180.744 332.383 181.02 332.935 181.572C333.511 182.1 333.799 182.784 333.799 183.624ZM5.97427 228.624C5.97427 229.464 5.68627 230.148 5.11027 230.676C4.55827 231.204 3.88627 231.468 3.09427 231.468C2.27827 231.468 1.59427 231.204 1.04227 230.676C0.490273 230.148 0.214273 229.464 0.214273 228.624C0.214273 227.784 0.490273 227.1 1.04227 226.572C1.59427 226.02 2.27827 225.744 3.09427 225.744C3.88627 225.744 4.55827 226.02 5.11027 226.572C5.68627 227.1 5.97427 227.784 5.97427 228.624ZM38.7568 228.624C38.7568 229.464 38.4688 230.148 37.8928 230.676C37.3408 231.204 36.6688 231.468 35.8768 231.468C35.0608 231.468 34.3768 231.204 33.8248 230.676C33.2728 230.148 32.9968 229.464 32.9968 228.624C32.9968 227.784 33.2728 227.1 33.8248 226.572C34.3768 226.02 35.0608 225.744 35.8768 225.744C36.6688 225.744 37.3408 226.02 37.8928 226.572C38.4688 227.1 38.7568 227.784 38.7568 228.624ZM71.5393 228.624C71.5393 229.464 71.2513 230.148 70.6753 230.676C70.1233 231.204 69.4513 231.468 68.6593 231.468C67.8433 231.468 67.1593 231.204 66.6073 230.676C66.0553 230.148 65.7793 229.464 65.7793 228.624C65.7793 227.784 66.0553 227.1 66.6073 226.572C67.1593 226.02 67.8433 225.744 68.6593 225.744C69.4513 225.744 70.1233 226.02 70.6753 226.572C71.2513 227.1 71.5393 227.784 71.5393 228.624ZM104.322 228.624C104.322 229.464 104.034 230.148 103.458 230.676C102.906 231.204 102.234 231.468 101.442 231.468C100.626 231.468 99.9418 231.204 99.3898 230.676C98.8378 230.148 98.5618 229.464 98.5618 228.624C98.5618 227.784 98.8378 227.1 99.3898 226.572C99.9418 226.02 100.626 225.744 101.442 225.744C102.234 225.744 102.906 226.02 103.458 226.572C104.034 227.1 104.322 227.784 104.322 228.624ZM137.104 228.624C137.104 229.464 136.816 230.148 136.24 230.676C135.688 231.204 135.016 231.468 134.224 231.468C133.408 231.468 132.724 231.204 132.172 230.676C131.62 230.148 131.344 229.464 131.344 228.624C131.344 227.784 131.62 227.1 132.172 226.572C132.724 226.02 133.408 225.744 134.224 225.744C135.016 225.744 135.688 226.02 136.24 226.572C136.816 227.1 137.104 227.784 137.104 228.624ZM169.887 228.624C169.887 229.464 169.599 230.148 169.023 230.676C168.471 231.204 167.799 231.468 167.007 231.468C166.191 231.468 165.507 231.204 164.955 230.676C164.403 230.148 164.127 229.464 164.127 228.624C164.127 227.784 164.403 227.1 164.955 226.572C165.507 226.02 166.191 225.744 167.007 225.744C167.799 225.744 168.471 226.02 169.023 226.572C169.599 227.1 169.887 227.784 169.887 228.624ZM202.669 228.624C202.669 229.464 202.381 230.148 201.805 230.676C201.253 231.204 200.581 231.468 199.789 231.468C198.973 231.468 198.289 231.204 197.737 230.676C197.185 230.148 196.909 229.464 196.909 228.624C196.909 227.784 197.185 227.1 197.737 226.572C198.289 226.02 198.973 225.744 199.789 225.744C200.581 225.744 201.253 226.02 201.805 226.572C202.381 227.1 202.669 227.784 202.669 228.624ZM235.452 228.624C235.452 229.464 235.164 230.148 234.588 230.676C234.036 231.204 233.364 231.468 232.572 231.468C231.756 231.468 231.072 231.204 230.52 230.676C229.968 230.148 229.692 229.464 229.692 228.624C229.692 227.784 229.968 227.1 230.52 226.572C231.072 226.02 231.756 225.744 232.572 225.744C233.364 225.744 234.036 226.02 234.588 226.572C235.164 227.1 235.452 227.784 235.452 228.624ZM268.234 228.624C268.234 229.464 267.946 230.148 267.37 230.676C266.818 231.204 266.146 231.468 265.354 231.468C264.538 231.468 263.854 231.204 263.302 230.676C262.75 230.148 262.474 229.464 262.474 228.624C262.474 227.784 262.75 227.1 263.302 226.572C263.854 226.02 264.538 225.744 265.354 225.744C266.146 225.744 266.818 226.02 267.37 226.572C267.946 227.1 268.234 227.784 268.234 228.624ZM301.017 228.624C301.017 229.464 300.729 230.148 300.153 230.676C299.601 231.204 298.929 231.468 298.137 231.468C297.321 231.468 296.637 231.204 296.085 230.676C295.533 230.148 295.257 229.464 295.257 228.624C295.257 227.784 295.533 227.1 296.085 226.572C296.637 226.02 297.321 225.744 298.137 225.744C298.929 225.744 299.601 226.02 300.153 226.572C300.729 227.1 301.017 227.784 301.017 228.624ZM333.799 228.624C333.799 229.464 333.511 230.148 332.935 230.676C332.383 231.204 331.711 231.468 330.919 231.468C330.103 231.468 329.419 231.204 328.867 230.676C328.315 230.148 328.039 229.464 328.039 228.624C328.039 227.784 328.315 227.1 328.867 226.572C329.419 226.02 330.103 225.744 330.919 225.744C331.711 225.744 332.383 226.02 332.935 226.572C333.511 227.1 333.799 227.784 333.799 228.624ZM5.97427 273.624C5.97427 274.464 5.68627 275.148 5.11027 275.676C4.55827 276.204 3.88627 276.468 3.09427 276.468C2.27827 276.468 1.59427 276.204 1.04227 275.676C0.490273 275.148 0.214273 274.464 0.214273 273.624C0.214273 272.784 0.490273 272.1 1.04227 271.572C1.59427 271.02 2.27827 270.744 3.09427 270.744C3.88627 270.744 4.55827 271.02 5.11027 271.572C5.68627 272.1 5.97427 272.784 5.97427 273.624ZM38.7568 273.624C38.7568 274.464 38.4688 275.148 37.8928 275.676C37.3408 276.204 36.6688 276.468 35.8768 276.468C35.0608 276.468 34.3768 276.204 33.8248 275.676C33.2728 275.148 32.9968 274.464 32.9968 273.624C32.9968 272.784 33.2728 272.1 33.8248 271.572C34.3768 271.02 35.0608 270.744 35.8768 270.744C36.6688 270.744 37.3408 271.02 37.8928 271.572C38.4688 272.1 38.7568 272.784 38.7568 273.624ZM71.5393 273.624C71.5393 274.464 71.2513 275.148 70.6753 275.676C70.1233 276.204 69.4513 276.468 68.6593 276.468C67.8433 276.468 67.1593 276.204 66.6073 275.676C66.0553 275.148 65.7793 274.464 65.7793 273.624C65.7793 272.784 66.0553 272.1 66.6073 271.572C67.1593 271.02 67.8433 270.744 68.6593 270.744C69.4513 270.744 70.1233 271.02 70.6753 271.572C71.2513 272.1 71.5393 272.784 71.5393 273.624ZM104.322 273.624C104.322 274.464 104.034 275.148 103.458 275.676C102.906 276.204 102.234 276.468 101.442 276.468C100.626 276.468 99.9418 276.204 99.3898 275.676C98.8378 275.148 98.5618 274.464 98.5618 273.624C98.5618 272.784 98.8378 272.1 99.3898 271.572C99.9418 271.02 100.626 270.744 101.442 270.744C102.234 270.744 102.906 271.02 103.458 271.572C104.034 272.1 104.322 272.784 104.322 273.624ZM137.104 273.624C137.104 274.464 136.816 275.148 136.24 275.676C135.688 276.204 135.016 276.468 134.224 276.468C133.408 276.468 132.724 276.204 132.172 275.676C131.62 275.148 131.344 274.464 131.344 273.624C131.344 272.784 131.62 272.1 132.172 271.572C132.724 271.02 133.408 270.744 134.224 270.744C135.016 270.744 135.688 271.02 136.24 271.572C136.816 272.1 137.104 272.784 137.104 273.624ZM169.887 273.624C169.887 274.464 169.599 275.148 169.023 275.676C168.471 276.204 167.799 276.468 167.007 276.468C166.191 276.468 165.507 276.204 164.955 275.676C164.403 275.148 164.127 274.464 164.127 273.624C164.127 272.784 164.403 272.1 164.955 271.572C165.507 271.02 166.191 270.744 167.007 270.744C167.799 270.744 168.471 271.02 169.023 271.572C169.599 272.1 169.887 272.784 169.887 273.624ZM202.669 273.624C202.669 274.464 202.381 275.148 201.805 275.676C201.253 276.204 200.581 276.468 199.789 276.468C198.973 276.468 198.289 276.204 197.737 275.676C197.185 275.148 196.909 274.464 196.909 273.624C196.909 272.784 197.185 272.1 197.737 271.572C198.289 271.02 198.973 270.744 199.789 270.744C200.581 270.744 201.253 271.02 201.805 271.572C202.381 272.1 202.669 272.784 202.669 273.624ZM235.452 273.624C235.452 274.464 235.164 275.148 234.588 275.676C234.036 276.204 233.364 276.468 232.572 276.468C231.756 276.468 231.072 276.204 230.52 275.676C229.968 275.148 229.692 274.464 229.692 273.624C229.692 272.784 229.968 272.1 230.52 271.572C231.072 271.02 231.756 270.744 232.572 270.744C233.364 270.744 234.036 271.02 234.588 271.572C235.164 272.1 235.452 272.784 235.452 273.624ZM268.234 273.624C268.234 274.464 267.946 275.148 267.37 275.676C266.818 276.204 266.146 276.468 265.354 276.468C264.538 276.468 263.854 276.204 263.302 275.676C262.75 275.148 262.474 274.464 262.474 273.624C262.474 272.784 262.75 272.1 263.302 271.572C263.854 271.02 264.538 270.744 265.354 270.744C266.146 270.744 266.818 271.02 267.37 271.572C267.946 272.1 268.234 272.784 268.234 273.624ZM301.017 273.624C301.017 274.464 300.729 275.148 300.153 275.676C299.601 276.204 298.929 276.468 298.137 276.468C297.321 276.468 296.637 276.204 296.085 275.676C295.533 275.148 295.257 274.464 295.257 273.624C295.257 272.784 295.533 272.1 296.085 271.572C296.637 271.02 297.321 270.744 298.137 270.744C298.929 270.744 299.601 271.02 300.153 271.572C300.729 272.1 301.017 272.784 301.017 273.624ZM333.799 273.624C333.799 274.464 333.511 275.148 332.935 275.676C332.383 276.204 331.711 276.468 330.919 276.468C330.103 276.468 329.419 276.204 328.867 275.676C328.315 275.148 328.039 274.464 328.039 273.624C328.039 272.784 328.315 272.1 328.867 271.572C329.419 271.02 330.103 270.744 330.919 270.744C331.711 270.744 332.383 271.02 332.935 271.572C333.511 272.1 333.799 272.784 333.799 273.624ZM5.97427 318.624C5.97427 319.464 5.68627 320.148 5.11027 320.676C4.55827 321.204 3.88627 321.468 3.09427 321.468C2.27827 321.468 1.59427 321.204 1.04227 320.676C0.490273 320.148 0.214273 319.464 0.214273 318.624C0.214273 317.784 0.490273 317.1 1.04227 316.572C1.59427 316.02 2.27827 315.744 3.09427 315.744C3.88627 315.744 4.55827 316.02 5.11027 316.572C5.68627 317.1 5.97427 317.784 5.97427 318.624ZM38.7568 318.624C38.7568 319.464 38.4688 320.148 37.8928 320.676C37.3408 321.204 36.6688 321.468 35.8768 321.468C35.0608 321.468 34.3768 321.204 33.8248 320.676C33.2728 320.148 32.9968 319.464 32.9968 318.624C32.9968 317.784 33.2728 317.1 33.8248 316.572C34.3768 316.02 35.0608 315.744 35.8768 315.744C36.6688 315.744 37.3408 316.02 37.8928 316.572C38.4688 317.1 38.7568 317.784 38.7568 318.624ZM71.5393 318.624C71.5393 319.464 71.2513 320.148 70.6753 320.676C70.1233 321.204 69.4513 321.468 68.6593 321.468C67.8433 321.468 67.1593 321.204 66.6073 320.676C66.0553 320.148 65.7793 319.464 65.7793 318.624C65.7793 317.784 66.0553 317.1 66.6073 316.572C67.1593 316.02 67.8433 315.744 68.6593 315.744C69.4513 315.744 70.1233 316.02 70.6753 316.572C71.2513 317.1 71.5393 317.784 71.5393 318.624ZM104.322 318.624C104.322 319.464 104.034 320.148 103.458 320.676C102.906 321.204 102.234 321.468 101.442 321.468C100.626 321.468 99.9418 321.204 99.3898 320.676C98.8378 320.148 98.5618 319.464 98.5618 318.624C98.5618 317.784 98.8378 317.1 99.3898 316.572C99.9418 316.02 100.626 315.744 101.442 315.744C102.234 315.744 102.906 316.02 103.458 316.572C104.034 317.1 104.322 317.784 104.322 318.624ZM137.104 318.624C137.104 319.464 136.816 320.148 136.24 320.676C135.688 321.204 135.016 321.468 134.224 321.468C133.408 321.468 132.724 321.204 132.172 320.676C131.62 320.148 131.344 319.464 131.344 318.624C131.344 317.784 131.62 317.1 132.172 316.572C132.724 316.02 133.408 315.744 134.224 315.744C135.016 315.744 135.688 316.02 136.24 316.572C136.816 317.1 137.104 317.784 137.104 318.624ZM169.887 318.624C169.887 319.464 169.599 320.148 169.023 320.676C168.471 321.204 167.799 321.468 167.007 321.468C166.191 321.468 165.507 321.204 164.955 320.676C164.403 320.148 164.127 319.464 164.127 318.624C164.127 317.784 164.403 317.1 164.955 316.572C165.507 316.02 166.191 315.744 167.007 315.744C167.799 315.744 168.471 316.02 169.023 316.572C169.599 317.1 169.887 317.784 169.887 318.624ZM202.669 318.624C202.669 319.464 202.381 320.148 201.805 320.676C201.253 321.204 200.581 321.468 199.789 321.468C198.973 321.468 198.289 321.204 197.737 320.676C197.185 320.148 196.909 319.464 196.909 318.624C196.909 317.784 197.185 317.1 197.737 316.572C198.289 316.02 198.973 315.744 199.789 315.744C200.581 315.744 201.253 316.02 201.805 316.572C202.381 317.1 202.669 317.784 202.669 318.624ZM235.452 318.624C235.452 319.464 235.164 320.148 234.588 320.676C234.036 321.204 233.364 321.468 232.572 321.468C231.756 321.468 231.072 321.204 230.52 320.676C229.968 320.148 229.692 319.464 229.692 318.624C229.692 317.784 229.968 317.1 230.52 316.572C231.072 316.02 231.756 315.744 232.572 315.744C233.364 315.744 234.036 316.02 234.588 316.572C235.164 317.1 235.452 317.784 235.452 318.624ZM268.234 318.624C268.234 319.464 267.946 320.148 267.37 320.676C266.818 321.204 266.146 321.468 265.354 321.468C264.538 321.468 263.854 321.204 263.302 320.676C262.75 320.148 262.474 319.464 262.474 318.624C262.474 317.784 262.75 317.1 263.302 316.572C263.854 316.02 264.538 315.744 265.354 315.744C266.146 315.744 266.818 316.02 267.37 316.572C267.946 317.1 268.234 317.784 268.234 318.624ZM301.017 318.624C301.017 319.464 300.729 320.148 300.153 320.676C299.601 321.204 298.929 321.468 298.137 321.468C297.321 321.468 296.637 321.204 296.085 320.676C295.533 320.148 295.257 319.464 295.257 318.624C295.257 317.784 295.533 317.1 296.085 316.572C296.637 316.02 297.321 315.744 298.137 315.744C298.929 315.744 299.601 316.02 300.153 316.572C300.729 317.1 301.017 317.784 301.017 318.624ZM333.799 318.624C333.799 319.464 333.511 320.148 332.935 320.676C332.383 321.204 331.711 321.468 330.919 321.468C330.103 321.468 329.419 321.204 328.867 320.676C328.315 320.148 328.039 319.464 328.039 318.624C328.039 317.784 328.315 317.1 328.867 316.572C329.419 316.02 330.103 315.744 330.919 315.744C331.711 315.744 332.383 316.02 332.935 316.572C333.511 317.1 333.799 317.784 333.799 318.624ZM5.97427 363.624C5.97427 364.464 5.68627 365.148 5.11027 365.676C4.55827 366.204 3.88627 366.468 3.09427 366.468C2.27827 366.468 1.59427 366.204 1.04227 365.676C0.490273 365.148 0.214273 364.464 0.214273 363.624C0.214273 362.784 0.490273 362.1 1.04227 361.572C1.59427 361.02 2.27827 360.744 3.09427 360.744C3.88627 360.744 4.55827 361.02 5.11027 361.572C5.68627 362.1 5.97427 362.784 5.97427 363.624ZM38.7568 363.624C38.7568 364.464 38.4688 365.148 37.8928 365.676C37.3408 366.204 36.6688 366.468 35.8768 366.468C35.0608 366.468 34.3768 366.204 33.8248 365.676C33.2728 365.148 32.9968 364.464 32.9968 363.624C32.9968 362.784 33.2728 362.1 33.8248 361.572C34.3768 361.02 35.0608 360.744 35.8768 360.744C36.6688 360.744 37.3408 361.02 37.8928 361.572C38.4688 362.1 38.7568 362.784 38.7568 363.624ZM71.5393 363.624C71.5393 364.464 71.2513 365.148 70.6753 365.676C70.1233 366.204 69.4513 366.468 68.6593 366.468C67.8433 366.468 67.1593 366.204 66.6073 365.676C66.0553 365.148 65.7793 364.464 65.7793 363.624C65.7793 362.784 66.0553 362.1 66.6073 361.572C67.1593 361.02 67.8433 360.744 68.6593 360.744C69.4513 360.744 70.1233 361.02 70.6753 361.572C71.2513 362.1 71.5393 362.784 71.5393 363.624ZM104.322 363.624C104.322 364.464 104.034 365.148 103.458 365.676C102.906 366.204 102.234 366.468 101.442 366.468C100.626 366.468 99.9418 366.204 99.3898 365.676C98.8378 365.148 98.5618 364.464 98.5618 363.624C98.5618 362.784 98.8378 362.1 99.3898 361.572C99.9418 361.02 100.626 360.744 101.442 360.744C102.234 360.744 102.906 361.02 103.458 361.572C104.034 362.1 104.322 362.784 104.322 363.624ZM137.104 363.624C137.104 364.464 136.816 365.148 136.24 365.676C135.688 366.204 135.016 366.468 134.224 366.468C133.408 366.468 132.724 366.204 132.172 365.676C131.62 365.148 131.344 364.464 131.344 363.624C131.344 362.784 131.62 362.1 132.172 361.572C132.724 361.02 133.408 360.744 134.224 360.744C135.016 360.744 135.688 361.02 136.24 361.572C136.816 362.1 137.104 362.784 137.104 363.624ZM169.887 363.624C169.887 364.464 169.599 365.148 169.023 365.676C168.471 366.204 167.799 366.468 167.007 366.468C166.191 366.468 165.507 366.204 164.955 365.676C164.403 365.148 164.127 364.464 164.127 363.624C164.127 362.784 164.403 362.1 164.955 361.572C165.507 361.02 166.191 360.744 167.007 360.744C167.799 360.744 168.471 361.02 169.023 361.572C169.599 362.1 169.887 362.784 169.887 363.624ZM202.669 363.624C202.669 364.464 202.381 365.148 201.805 365.676C201.253 366.204 200.581 366.468 199.789 366.468C198.973 366.468 198.289 366.204 197.737 365.676C197.185 365.148 196.909 364.464 196.909 363.624C196.909 362.784 197.185 362.1 197.737 361.572C198.289 361.02 198.973 360.744 199.789 360.744C200.581 360.744 201.253 361.02 201.805 361.572C202.381 362.1 202.669 362.784 202.669 363.624ZM235.452 363.624C235.452 364.464 235.164 365.148 234.588 365.676C234.036 366.204 233.364 366.468 232.572 366.468C231.756 366.468 231.072 366.204 230.52 365.676C229.968 365.148 229.692 364.464 229.692 363.624C229.692 362.784 229.968 362.1 230.52 361.572C231.072 361.02 231.756 360.744 232.572 360.744C233.364 360.744 234.036 361.02 234.588 361.572C235.164 362.1 235.452 362.784 235.452 363.624ZM268.234 363.624C268.234 364.464 267.946 365.148 267.37 365.676C266.818 366.204 266.146 366.468 265.354 366.468C264.538 366.468 263.854 366.204 263.302 365.676C262.75 365.148 262.474 364.464 262.474 363.624C262.474 362.784 262.75 362.1 263.302 361.572C263.854 361.02 264.538 360.744 265.354 360.744C266.146 360.744 266.818 361.02 267.37 361.572C267.946 362.1 268.234 362.784 268.234 363.624ZM301.017 363.624C301.017 364.464 300.729 365.148 300.153 365.676C299.601 366.204 298.929 366.468 298.137 366.468C297.321 366.468 296.637 366.204 296.085 365.676C295.533 365.148 295.257 364.464 295.257 363.624C295.257 362.784 295.533 362.1 296.085 361.572C296.637 361.02 297.321 360.744 298.137 360.744C298.929 360.744 299.601 361.02 300.153 361.572C300.729 362.1 301.017 362.784 301.017 363.624ZM333.799 363.624C333.799 364.464 333.511 365.148 332.935 365.676C332.383 366.204 331.711 366.468 330.919 366.468C330.103 366.468 329.419 366.204 328.867 365.676C328.315 365.148 328.039 364.464 328.039 363.624C328.039 362.784 328.315 362.1 328.867 361.572C329.419 361.02 330.103 360.744 330.919 360.744C331.711 360.744 332.383 361.02 332.935 361.572C333.511 362.1 333.799 362.784 333.799 363.624Z" fill="url(#paint0_linear_226_496)"/>
<defs>
<linearGradient id="paint0_linear_226_496" x1="167" y1="-30" x2="167" y2="372" gradientUnits="userSpaceOnUse">
<stop stop-color="#E34B8A"/>
<stop offset="1" stop-color="#8D078A"/>
</linearGradient>
</defs>
</svg>
