<svg width="322" height="204" viewBox="0 0 322 204" fill="none" xmlns="http://www.w3.org/2000/svg">
<path d="M318.376 6.53926C317.536 6.53926 316.852 6.25126 316.324 5.67526C315.796 5.12326 315.532 4.45126 315.532 3.65926C315.532 2.84326 315.796 2.15926 316.324 1.60726C316.852 1.05526 317.536 0.779261 318.376 0.779261C319.216 0.779261 319.9 1.05526 320.428 1.60726C320.98 2.15926 321.256 2.84326 321.256 3.65926C321.256 4.45126 320.98 5.12326 320.428 5.67526C319.9 6.25126 319.216 6.53926 318.376 6.53926ZM318.376 39.3218C317.536 39.3218 316.852 39.0338 316.324 38.4578C315.796 37.9058 315.532 37.2338 315.532 36.4418C315.532 35.6258 315.796 34.9418 316.324 34.3898C316.852 33.8378 317.536 33.5618 318.376 33.5618C319.216 33.5618 319.9 33.8378 320.428 34.3898C320.98 34.9418 321.256 35.6258 321.256 36.4418C321.256 37.2338 320.98 37.9058 320.428 38.4578C319.9 39.0338 319.216 39.3218 318.376 39.3218ZM318.376 72.1043C317.536 72.1043 316.852 71.8163 316.324 71.2403C315.796 70.6883 315.532 70.0163 315.532 69.2243C315.532 68.4083 315.796 67.7243 316.324 67.1723C316.852 66.6203 317.536 66.3443 318.376 66.3443C319.216 66.3443 319.9 66.6203 320.428 67.1723C320.98 67.7243 321.256 68.4083 321.256 69.2243C321.256 70.0163 320.98 70.6883 320.428 71.2403C319.9 71.8163 319.216 72.1043 318.376 72.1043ZM318.376 104.887C317.536 104.887 316.852 104.599 316.324 104.023C315.796 103.471 315.532 102.799 315.532 102.007C315.532 101.191 315.796 100.507 316.324 99.9548C316.852 99.4028 317.536 99.1268 318.376 99.1268C319.216 99.1268 319.9 99.4028 320.428 99.9548C320.98 100.507 321.256 101.191 321.256 102.007C321.256 102.799 320.98 103.471 320.428 104.023C319.9 104.599 319.216 104.887 318.376 104.887ZM318.376 137.669C317.536 137.669 316.852 137.381 316.324 136.805C315.796 136.253 315.532 135.581 315.532 134.789C315.532 133.973 315.796 133.289 316.324 132.737C316.852 132.185 317.536 131.909 318.376 131.909C319.216 131.909 319.9 132.185 320.428 132.737C320.98 133.289 321.256 133.973 321.256 134.789C321.256 135.581 320.98 136.253 320.428 136.805C319.9 137.381 319.216 137.669 318.376 137.669ZM318.376 170.452C317.536 170.452 316.852 170.164 316.324 169.588C315.796 169.036 315.532 168.364 315.532 167.572C315.532 166.756 315.796 166.072 316.324 165.52C316.852 164.968 317.536 164.692 318.376 164.692C319.216 164.692 319.9 164.968 320.428 165.52C320.98 166.072 321.256 166.756 321.256 167.572C321.256 168.364 320.98 169.036 320.428 169.588C319.9 170.164 319.216 170.452 318.376 170.452ZM318.376 203.234C317.536 203.234 316.852 202.946 316.324 202.37C315.796 201.818 315.532 201.146 315.532 200.354C315.532 199.538 315.796 198.854 316.324 198.302C316.852 197.75 317.536 197.474 318.376 197.474C319.216 197.474 319.9 197.75 320.428 198.302C320.98 198.854 321.256 199.538 321.256 200.354C321.256 201.146 320.98 201.818 320.428 202.37C319.9 202.946 319.216 203.234 318.376 203.234ZM273.376 6.53926C272.536 6.53926 271.852 6.25126 271.324 5.67526C270.796 5.12326 270.532 4.45126 270.532 3.65926C270.532 2.84326 270.796 2.15926 271.324 1.60726C271.852 1.05526 272.536 0.779261 273.376 0.779261C274.216 0.779261 274.9 1.05526 275.428 1.60726C275.98 2.15926 276.256 2.84326 276.256 3.65926C276.256 4.45126 275.98 5.12326 275.428 5.67526C274.9 6.25126 274.216 6.53926 273.376 6.53926ZM273.376 39.3218C272.536 39.3218 271.852 39.0338 271.324 38.4578C270.796 37.9058 270.532 37.2338 270.532 36.4418C270.532 35.6258 270.796 34.9418 271.324 34.3898C271.852 33.8378 272.536 33.5618 273.376 33.5618C274.216 33.5618 274.9 33.8378 275.428 34.3898C275.98 34.9418 276.256 35.6258 276.256 36.4418C276.256 37.2338 275.98 37.9058 275.428 38.4578C274.9 39.0338 274.216 39.3218 273.376 39.3218ZM273.376 72.1043C272.536 72.1043 271.852 71.8163 271.324 71.2403C270.796 70.6883 270.532 70.0163 270.532 69.2243C270.532 68.4083 270.796 67.7243 271.324 67.1723C271.852 66.6203 272.536 66.3443 273.376 66.3443C274.216 66.3443 274.9 66.6203 275.428 67.1723C275.98 67.7243 276.256 68.4083 276.256 69.2243C276.256 70.0163 275.98 70.6883 275.428 71.2403C274.9 71.8163 274.216 72.1043 273.376 72.1043ZM273.376 104.887C272.536 104.887 271.852 104.599 271.324 104.023C270.796 103.471 270.532 102.799 270.532 102.007C270.532 101.191 270.796 100.507 271.324 99.9548C271.852 99.4028 272.536 99.1268 273.376 99.1268C274.216 99.1268 274.9 99.4028 275.428 99.9548C275.98 100.507 276.256 101.191 276.256 102.007C276.256 102.799 275.98 103.471 275.428 104.023C274.9 104.599 274.216 104.887 273.376 104.887ZM273.376 137.669C272.536 137.669 271.852 137.381 271.324 136.805C270.796 136.253 270.532 135.581 270.532 134.789C270.532 133.973 270.796 133.289 271.324 132.737C271.852 132.185 272.536 131.909 273.376 131.909C274.216 131.909 274.9 132.185 275.428 132.737C275.98 133.289 276.256 133.973 276.256 134.789C276.256 135.581 275.98 136.253 275.428 136.805C274.9 137.381 274.216 137.669 273.376 137.669ZM273.376 170.452C272.536 170.452 271.852 170.164 271.324 169.588C270.796 169.036 270.532 168.364 270.532 167.572C270.532 166.756 270.796 166.072 271.324 165.52C271.852 164.968 272.536 164.692 273.376 164.692C274.216 164.692 274.9 164.968 275.428 165.52C275.98 166.072 276.256 166.756 276.256 167.572C276.256 168.364 275.98 169.036 275.428 169.588C274.9 170.164 274.216 170.452 273.376 170.452ZM273.376 203.234C272.536 203.234 271.852 202.946 271.324 202.37C270.796 201.818 270.532 201.146 270.532 200.354C270.532 199.538 270.796 198.854 271.324 198.302C271.852 197.75 272.536 197.474 273.376 197.474C274.216 197.474 274.9 197.75 275.428 198.302C275.98 198.854 276.256 199.538 276.256 200.354C276.256 201.146 275.98 201.818 275.428 202.37C274.9 202.946 274.216 203.234 273.376 203.234ZM228.376 6.53926C227.536 6.53926 226.852 6.25126 226.324 5.67526C225.796 5.12326 225.532 4.45126 225.532 3.65926C225.532 2.84326 225.796 2.15926 226.324 1.60726C226.852 1.05526 227.536 0.779261 228.376 0.779261C229.216 0.779261 229.9 1.05526 230.428 1.60726C230.98 2.15926 231.256 2.84326 231.256 3.65926C231.256 4.45126 230.98 5.12326 230.428 5.67526C229.9 6.25126 229.216 6.53926 228.376 6.53926ZM228.376 39.3218C227.536 39.3218 226.852 39.0338 226.324 38.4578C225.796 37.9058 225.532 37.2338 225.532 36.4418C225.532 35.6258 225.796 34.9418 226.324 34.3898C226.852 33.8378 227.536 33.5618 228.376 33.5618C229.216 33.5618 229.9 33.8378 230.428 34.3898C230.98 34.9418 231.256 35.6258 231.256 36.4418C231.256 37.2338 230.98 37.9058 230.428 38.4578C229.9 39.0338 229.216 39.3218 228.376 39.3218ZM228.376 72.1043C227.536 72.1043 226.852 71.8163 226.324 71.2403C225.796 70.6883 225.532 70.0163 225.532 69.2243C225.532 68.4083 225.796 67.7243 226.324 67.1723C226.852 66.6203 227.536 66.3443 228.376 66.3443C229.216 66.3443 229.9 66.6203 230.428 67.1723C230.98 67.7243 231.256 68.4083 231.256 69.2243C231.256 70.0163 230.98 70.6883 230.428 71.2403C229.9 71.8163 229.216 72.1043 228.376 72.1043ZM228.376 104.887C227.536 104.887 226.852 104.599 226.324 104.023C225.796 103.471 225.532 102.799 225.532 102.007C225.532 101.191 225.796 100.507 226.324 99.9548C226.852 99.4028 227.536 99.1268 228.376 99.1268C229.216 99.1268 229.9 99.4028 230.428 99.9548C230.98 100.507 231.256 101.191 231.256 102.007C231.256 102.799 230.98 103.471 230.428 104.023C229.9 104.599 229.216 104.887 228.376 104.887ZM228.376 137.669C227.536 137.669 226.852 137.381 226.324 136.805C225.796 136.253 225.532 135.581 225.532 134.789C225.532 133.973 225.796 133.289 226.324 132.737C226.852 132.185 227.536 131.909 228.376 131.909C229.216 131.909 229.9 132.185 230.428 132.737C230.98 133.289 231.256 133.973 231.256 134.789C231.256 135.581 230.98 136.253 230.428 136.805C229.9 137.381 229.216 137.669 228.376 137.669ZM228.376 170.452C227.536 170.452 226.852 170.164 226.324 169.588C225.796 169.036 225.532 168.364 225.532 167.572C225.532 166.756 225.796 166.072 226.324 165.52C226.852 164.968 227.536 164.692 228.376 164.692C229.216 164.692 229.9 164.968 230.428 165.52C230.98 166.072 231.256 166.756 231.256 167.572C231.256 168.364 230.98 169.036 230.428 169.588C229.9 170.164 229.216 170.452 228.376 170.452ZM228.376 203.234C227.536 203.234 226.852 202.946 226.324 202.37C225.796 201.818 225.532 201.146 225.532 200.354C225.532 199.538 225.796 198.854 226.324 198.302C226.852 197.75 227.536 197.474 228.376 197.474C229.216 197.474 229.9 197.75 230.428 198.302C230.98 198.854 231.256 199.538 231.256 200.354C231.256 201.146 230.98 201.818 230.428 202.37C229.9 202.946 229.216 203.234 228.376 203.234ZM183.376 6.53926C182.536 6.53926 181.852 6.25126 181.324 5.67526C180.796 5.12326 180.532 4.45126 180.532 3.65926C180.532 2.84326 180.796 2.15926 181.324 1.60726C181.852 1.05526 182.536 0.779261 183.376 0.779261C184.216 0.779261 184.9 1.05526 185.428 1.60726C185.98 2.15926 186.256 2.84326 186.256 3.65926C186.256 4.45126 185.98 5.12326 185.428 5.67526C184.9 6.25126 184.216 6.53926 183.376 6.53926ZM183.376 39.3218C182.536 39.3218 181.852 39.0338 181.324 38.4578C180.796 37.9058 180.532 37.2338 180.532 36.4418C180.532 35.6258 180.796 34.9418 181.324 34.3898C181.852 33.8378 182.536 33.5618 183.376 33.5618C184.216 33.5618 184.9 33.8378 185.428 34.3898C185.98 34.9418 186.256 35.6258 186.256 36.4418C186.256 37.2338 185.98 37.9058 185.428 38.4578C184.9 39.0338 184.216 39.3218 183.376 39.3218ZM183.376 72.1043C182.536 72.1043 181.852 71.8163 181.324 71.2403C180.796 70.6883 180.532 70.0163 180.532 69.2243C180.532 68.4083 180.796 67.7243 181.324 67.1723C181.852 66.6203 182.536 66.3443 183.376 66.3443C184.216 66.3443 184.9 66.6203 185.428 67.1723C185.98 67.7243 186.256 68.4083 186.256 69.2243C186.256 70.0163 185.98 70.6883 185.428 71.2403C184.9 71.8163 184.216 72.1043 183.376 72.1043ZM183.376 104.887C182.536 104.887 181.852 104.599 181.324 104.023C180.796 103.471 180.532 102.799 180.532 102.007C180.532 101.191 180.796 100.507 181.324 99.9548C181.852 99.4028 182.536 99.1268 183.376 99.1268C184.216 99.1268 184.9 99.4028 185.428 99.9548C185.98 100.507 186.256 101.191 186.256 102.007C186.256 102.799 185.98 103.471 185.428 104.023C184.9 104.599 184.216 104.887 183.376 104.887ZM183.376 137.669C182.536 137.669 181.852 137.381 181.324 136.805C180.796 136.253 180.532 135.581 180.532 134.789C180.532 133.973 180.796 133.289 181.324 132.737C181.852 132.185 182.536 131.909 183.376 131.909C184.216 131.909 184.9 132.185 185.428 132.737C185.98 133.289 186.256 133.973 186.256 134.789C186.256 135.581 185.98 136.253 185.428 136.805C184.9 137.381 184.216 137.669 183.376 137.669ZM183.376 170.452C182.536 170.452 181.852 170.164 181.324 169.588C180.796 169.036 180.532 168.364 180.532 167.572C180.532 166.756 180.796 166.072 181.324 165.52C181.852 164.968 182.536 164.692 183.376 164.692C184.216 164.692 184.9 164.968 185.428 165.52C185.98 166.072 186.256 166.756 186.256 167.572C186.256 168.364 185.98 169.036 185.428 169.588C184.9 170.164 184.216 170.452 183.376 170.452ZM183.376 203.234C182.536 203.234 181.852 202.946 181.324 202.37C180.796 201.818 180.532 201.146 180.532 200.354C180.532 199.538 180.796 198.854 181.324 198.302C181.852 197.75 182.536 197.474 183.376 197.474C184.216 197.474 184.9 197.75 185.428 198.302C185.98 198.854 186.256 199.538 186.256 200.354C186.256 201.146 185.98 201.818 185.428 202.37C184.9 202.946 184.216 203.234 183.376 203.234ZM138.376 6.53926C137.536 6.53926 136.852 6.25126 136.324 5.67526C135.796 5.12326 135.532 4.45126 135.532 3.65926C135.532 2.84326 135.796 2.15926 136.324 1.60726C136.852 1.05526 137.536 0.779261 138.376 0.779261C139.216 0.779261 139.9 1.05526 140.428 1.60726C140.98 2.15926 141.256 2.84326 141.256 3.65926C141.256 4.45126 140.98 5.12326 140.428 5.67526C139.9 6.25126 139.216 6.53926 138.376 6.53926ZM138.376 39.3218C137.536 39.3218 136.852 39.0338 136.324 38.4578C135.796 37.9058 135.532 37.2338 135.532 36.4418C135.532 35.6258 135.796 34.9418 136.324 34.3898C136.852 33.8378 137.536 33.5618 138.376 33.5618C139.216 33.5618 139.9 33.8378 140.428 34.3898C140.98 34.9418 141.256 35.6258 141.256 36.4418C141.256 37.2338 140.98 37.9058 140.428 38.4578C139.9 39.0338 139.216 39.3218 138.376 39.3218ZM138.376 72.1043C137.536 72.1043 136.852 71.8163 136.324 71.2403C135.796 70.6883 135.532 70.0163 135.532 69.2243C135.532 68.4083 135.796 67.7243 136.324 67.1723C136.852 66.6203 137.536 66.3443 138.376 66.3443C139.216 66.3443 139.9 66.6203 140.428 67.1723C140.98 67.7243 141.256 68.4083 141.256 69.2243C141.256 70.0163 140.98 70.6883 140.428 71.2403C139.9 71.8163 139.216 72.1043 138.376 72.1043ZM138.376 104.887C137.536 104.887 136.852 104.599 136.324 104.023C135.796 103.471 135.532 102.799 135.532 102.007C135.532 101.191 135.796 100.507 136.324 99.9548C136.852 99.4028 137.536 99.1268 138.376 99.1268C139.216 99.1268 139.9 99.4028 140.428 99.9548C140.98 100.507 141.256 101.191 141.256 102.007C141.256 102.799 140.98 103.471 140.428 104.023C139.9 104.599 139.216 104.887 138.376 104.887ZM138.376 137.669C137.536 137.669 136.852 137.381 136.324 136.805C135.796 136.253 135.532 135.581 135.532 134.789C135.532 133.973 135.796 133.289 136.324 132.737C136.852 132.185 137.536 131.909 138.376 131.909C139.216 131.909 139.9 132.185 140.428 132.737C140.98 133.289 141.256 133.973 141.256 134.789C141.256 135.581 140.98 136.253 140.428 136.805C139.9 137.381 139.216 137.669 138.376 137.669ZM138.376 170.452C137.536 170.452 136.852 170.164 136.324 169.588C135.796 169.036 135.532 168.364 135.532 167.572C135.532 166.756 135.796 166.072 136.324 165.52C136.852 164.968 137.536 164.692 138.376 164.692C139.216 164.692 139.9 164.968 140.428 165.52C140.98 166.072 141.256 166.756 141.256 167.572C141.256 168.364 140.98 169.036 140.428 169.588C139.9 170.164 139.216 170.452 138.376 170.452ZM138.376 203.234C137.536 203.234 136.852 202.946 136.324 202.37C135.796 201.818 135.532 201.146 135.532 200.354C135.532 199.538 135.796 198.854 136.324 198.302C136.852 197.75 137.536 197.474 138.376 197.474C139.216 197.474 139.9 197.75 140.428 198.302C140.98 198.854 141.256 199.538 141.256 200.354C141.256 201.146 140.98 201.818 140.428 202.37C139.9 202.946 139.216 203.234 138.376 203.234ZM93.376 6.53926C92.536 6.53926 91.852 6.25126 91.324 5.67526C90.796 5.12326 90.532 4.45126 90.532 3.65926C90.532 2.84326 90.796 2.15926 91.324 1.60726C91.852 1.05526 92.536 0.779261 93.376 0.779261C94.216 0.779261 94.9 1.05526 95.428 1.60726C95.98 2.15926 96.256 2.84326 96.256 3.65926C96.256 4.45126 95.98 5.12326 95.428 5.67526C94.9 6.25126 94.216 6.53926 93.376 6.53926ZM93.376 39.3218C92.536 39.3218 91.852 39.0338 91.324 38.4578C90.796 37.9058 90.532 37.2338 90.532 36.4418C90.532 35.6258 90.796 34.9418 91.324 34.3898C91.852 33.8378 92.536 33.5618 93.376 33.5618C94.216 33.5618 94.9 33.8378 95.428 34.3898C95.98 34.9418 96.256 35.6258 96.256 36.4418C96.256 37.2338 95.98 37.9058 95.428 38.4578C94.9 39.0338 94.216 39.3218 93.376 39.3218ZM93.376 72.1043C92.536 72.1043 91.852 71.8163 91.324 71.2403C90.796 70.6883 90.532 70.0163 90.532 69.2243C90.532 68.4083 90.796 67.7243 91.324 67.1723C91.852 66.6203 92.536 66.3443 93.376 66.3443C94.216 66.3443 94.9 66.6203 95.428 67.1723C95.98 67.7243 96.256 68.4083 96.256 69.2243C96.256 70.0163 95.98 70.6883 95.428 71.2403C94.9 71.8163 94.216 72.1043 93.376 72.1043ZM93.376 104.887C92.536 104.887 91.852 104.599 91.324 104.023C90.796 103.471 90.532 102.799 90.532 102.007C90.532 101.191 90.796 100.507 91.324 99.9548C91.852 99.4028 92.536 99.1268 93.376 99.1268C94.216 99.1268 94.9 99.4028 95.428 99.9548C95.98 100.507 96.256 101.191 96.256 102.007C96.256 102.799 95.98 103.471 95.428 104.023C94.9 104.599 94.216 104.887 93.376 104.887ZM93.376 137.669C92.536 137.669 91.852 137.381 91.324 136.805C90.796 136.253 90.532 135.581 90.532 134.789C90.532 133.973 90.796 133.289 91.324 132.737C91.852 132.185 92.536 131.909 93.376 131.909C94.216 131.909 94.9 132.185 95.428 132.737C95.98 133.289 96.256 133.973 96.256 134.789C96.256 135.581 95.98 136.253 95.428 136.805C94.9 137.381 94.216 137.669 93.376 137.669ZM93.376 170.452C92.536 170.452 91.852 170.164 91.324 169.588C90.796 169.036 90.532 168.364 90.532 167.572C90.532 166.756 90.796 166.072 91.324 165.52C91.852 164.968 92.536 164.692 93.376 164.692C94.216 164.692 94.9 164.968 95.428 165.52C95.98 166.072 96.256 166.756 96.256 167.572C96.256 168.364 95.98 169.036 95.428 169.588C94.9 170.164 94.216 170.452 93.376 170.452ZM93.376 203.234C92.536 203.234 91.852 202.946 91.324 202.37C90.796 201.818 90.532 201.146 90.532 200.354C90.532 199.538 90.796 198.854 91.324 198.302C91.852 197.75 92.536 197.474 93.376 197.474C94.216 197.474 94.9 197.75 95.428 198.302C95.98 198.854 96.256 199.538 96.256 200.354C96.256 201.146 95.98 201.818 95.428 202.37C94.9 202.946 94.216 203.234 93.376 203.234ZM48.376 6.53926C47.536 6.53926 46.852 6.25126 46.324 5.67526C45.796 5.12326 45.532 4.45126 45.532 3.65926C45.532 2.84326 45.796 2.15926 46.324 1.60726C46.852 1.05526 47.536 0.779261 48.376 0.779261C49.216 0.779261 49.9 1.05526 50.428 1.60726C50.98 2.15926 51.256 2.84326 51.256 3.65926C51.256 4.45126 50.98 5.12326 50.428 5.67526C49.9 6.25126 49.216 6.53926 48.376 6.53926ZM48.376 39.3218C47.536 39.3218 46.852 39.0338 46.324 38.4578C45.796 37.9058 45.532 37.2338 45.532 36.4418C45.532 35.6258 45.796 34.9418 46.324 34.3898C46.852 33.8378 47.536 33.5618 48.376 33.5618C49.216 33.5618 49.9 33.8378 50.428 34.3898C50.98 34.9418 51.256 35.6258 51.256 36.4418C51.256 37.2338 50.98 37.9058 50.428 38.4578C49.9 39.0338 49.216 39.3218 48.376 39.3218ZM48.376 72.1043C47.536 72.1043 46.852 71.8163 46.324 71.2403C45.796 70.6883 45.532 70.0163 45.532 69.2243C45.532 68.4083 45.796 67.7243 46.324 67.1723C46.852 66.6203 47.536 66.3443 48.376 66.3443C49.216 66.3443 49.9 66.6203 50.428 67.1723C50.98 67.7243 51.256 68.4083 51.256 69.2243C51.256 70.0163 50.98 70.6883 50.428 71.2403C49.9 71.8163 49.216 72.1043 48.376 72.1043ZM48.376 104.887C47.536 104.887 46.852 104.599 46.324 104.023C45.796 103.471 45.532 102.799 45.532 102.007C45.532 101.191 45.796 100.507 46.324 99.9548C46.852 99.4028 47.536 99.1268 48.376 99.1268C49.216 99.1268 49.9 99.4028 50.428 99.9548C50.98 100.507 51.256 101.191 51.256 102.007C51.256 102.799 50.98 103.471 50.428 104.023C49.9 104.599 49.216 104.887 48.376 104.887ZM48.376 137.669C47.536 137.669 46.852 137.381 46.324 136.805C45.796 136.253 45.532 135.581 45.532 134.789C45.532 133.973 45.796 133.289 46.324 132.737C46.852 132.185 47.536 131.909 48.376 131.909C49.216 131.909 49.9 132.185 50.428 132.737C50.98 133.289 51.256 133.973 51.256 134.789C51.256 135.581 50.98 136.253 50.428 136.805C49.9 137.381 49.216 137.669 48.376 137.669ZM48.376 170.452C47.536 170.452 46.852 170.164 46.324 169.588C45.796 169.036 45.532 168.364 45.532 167.572C45.532 166.756 45.796 166.072 46.324 165.52C46.852 164.968 47.536 164.692 48.376 164.692C49.216 164.692 49.9 164.968 50.428 165.52C50.98 166.072 51.256 166.756 51.256 167.572C51.256 168.364 50.98 169.036 50.428 169.588C49.9 170.164 49.216 170.452 48.376 170.452ZM48.376 203.234C47.536 203.234 46.852 202.946 46.324 202.37C45.796 201.818 45.532 201.146 45.532 200.354C45.532 199.538 45.796 198.854 46.324 198.302C46.852 197.75 47.536 197.474 48.376 197.474C49.216 197.474 49.9 197.75 50.428 198.302C50.98 198.854 51.256 199.538 51.256 200.354C51.256 201.146 50.98 201.818 50.428 202.37C49.9 202.946 49.216 203.234 48.376 203.234ZM3.37602 6.53926C2.53602 6.53926 1.85202 6.25126 1.32402 5.67526C0.796021 5.12326 0.532021 4.45126 0.532021 3.65926C0.532021 2.84326 0.796021 2.15926 1.32402 1.60726C1.85202 1.05526 2.53602 0.779261 3.37602 0.779261C4.21602 0.779261 4.90002 1.05526 5.42802 1.60726C5.98002 2.15926 6.25602 2.84326 6.25602 3.65926C6.25602 4.45126 5.98002 5.12326 5.42802 5.67526C4.90002 6.25126 4.21602 6.53926 3.37602 6.53926ZM3.37602 39.3218C2.53602 39.3218 1.85202 39.0338 1.32402 38.4578C0.796021 37.9058 0.532021 37.2338 0.532021 36.4418C0.532021 35.6258 0.796021 34.9418 1.32402 34.3898C1.85202 33.8378 2.53602 33.5618 3.37602 33.5618C4.21602 33.5618 4.90002 33.8378 5.42802 34.3898C5.98002 34.9418 6.25602 35.6258 6.25602 36.4418C6.25602 37.2338 5.98002 37.9058 5.42802 38.4578C4.90002 39.0338 4.21602 39.3218 3.37602 39.3218ZM3.37602 72.1043C2.53602 72.1043 1.85202 71.8163 1.32402 71.2403C0.796021 70.6883 0.532021 70.0163 0.532021 69.2243C0.532021 68.4083 0.796021 67.7243 1.32402 67.1723C1.85202 66.6203 2.53602 66.3443 3.37602 66.3443C4.21602 66.3443 4.90002 66.6203 5.42802 67.1723C5.98002 67.7243 6.25602 68.4083 6.25602 69.2243C6.25602 70.0163 5.98002 70.6883 5.42802 71.2403C4.90002 71.8163 4.21602 72.1043 3.37602 72.1043ZM3.37602 104.887C2.53602 104.887 1.85202 104.599 1.32402 104.023C0.796021 103.471 0.532021 102.799 0.532021 102.007C0.532021 101.191 0.796021 100.507 1.32402 99.9548C1.85202 99.4028 2.53602 99.1268 3.37602 99.1268C4.21602 99.1268 4.90002 99.4028 5.42802 99.9548C5.98002 100.507 6.25602 101.191 6.25602 102.007C6.25602 102.799 5.98002 103.471 5.42802 104.023C4.90002 104.599 4.21602 104.887 3.37602 104.887ZM3.37602 137.669C2.53602 137.669 1.85202 137.381 1.32402 136.805C0.796021 136.253 0.532021 135.581 0.532021 134.789C0.532021 133.973 0.796021 133.289 1.32402 132.737C1.85202 132.185 2.53602 131.909 3.37602 131.909C4.21602 131.909 4.90002 132.185 5.42802 132.737C5.98002 133.289 6.25602 133.973 6.25602 134.789C6.25602 135.581 5.98002 136.253 5.42802 136.805C4.90002 137.381 4.21602 137.669 3.37602 137.669ZM3.37602 170.452C2.53602 170.452 1.85202 170.164 1.32402 169.588C0.796021 169.036 0.532021 168.364 0.532021 167.572C0.532021 166.756 0.796021 166.072 1.32402 165.52C1.85202 164.968 2.53602 164.692 3.37602 164.692C4.21602 164.692 4.90002 164.968 5.42802 165.52C5.98002 166.072 6.25602 166.756 6.25602 167.572C6.25602 168.364 5.98002 169.036 5.42802 169.588C4.90002 170.164 4.21602 170.452 3.37602 170.452ZM3.37602 203.234C2.53602 203.234 1.85202 202.946 1.32402 202.37C0.796021 201.818 0.532021 201.146 0.532021 200.354C0.532021 199.538 0.796021 198.854 1.32402 198.302C1.85202 197.75 2.53602 197.474 3.37602 197.474C4.21602 197.474 4.90002 197.75 5.42802 198.302C5.98002 198.854 6.25602 199.538 6.25602 200.354C6.25602 201.146 5.98002 201.818 5.42802 202.37C4.90002 202.946 4.21602 203.234 3.37602 203.234Z" fill="url(#paint0_linear_227_1895)"/>
<defs>
<linearGradient id="paint0_linear_227_1895" x1="352" y1="102" x2="-43" y2="102" gradientUnits="userSpaceOnUse">
<stop stop-color="#E34B8A"/>
<stop offset="1" stop-color="#8D078A"/>
</linearGradient>
</defs>
</svg>
