<svg width="367" height="334" viewBox="0 0 367 334" fill="none" xmlns="http://www.w3.org/2000/svg">
<path d="M363.376 5.97427C362.536 5.97427 361.852 5.68627 361.324 5.11027C360.796 4.55827 360.532 3.88627 360.532 3.09427C360.532 2.27827 360.796 1.59427 361.324 1.04227C361.852 0.490273 362.536 0.214273 363.376 0.214273C364.216 0.214273 364.9 0.490273 365.428 1.04227C365.98 1.59427 366.256 2.27827 366.256 3.09427C366.256 3.88627 365.98 4.55827 365.428 5.11027C364.9 5.68627 364.216 5.97427 363.376 5.97427ZM363.376 38.7568C362.536 38.7568 361.852 38.4688 361.324 37.8928C360.796 37.3408 360.532 36.6688 360.532 35.8768C360.532 35.0608 360.796 34.3768 361.324 33.8248C361.852 33.2728 362.536 32.9968 363.376 32.9968C364.216 32.9968 364.9 33.2728 365.428 33.8248C365.98 34.3768 366.256 35.0608 366.256 35.8768C366.256 36.6688 365.98 37.3408 365.428 37.8928C364.9 38.4688 364.216 38.7568 363.376 38.7568ZM363.376 71.5393C362.536 71.5393 361.852 71.2513 361.324 70.6753C360.796 70.1233 360.532 69.4513 360.532 68.6593C360.532 67.8433 360.796 67.1593 361.324 66.6073C361.852 66.0553 362.536 65.7793 363.376 65.7793C364.216 65.7793 364.9 66.0553 365.428 66.6073C365.98 67.1593 366.256 67.8433 366.256 68.6593C366.256 69.4513 365.98 70.1233 365.428 70.6753C364.9 71.2513 364.216 71.5393 363.376 71.5393ZM363.376 104.322C362.536 104.322 361.852 104.034 361.324 103.458C360.796 102.906 360.532 102.234 360.532 101.442C360.532 100.626 360.796 99.9418 361.324 99.3898C361.852 98.8378 362.536 98.5618 363.376 98.5618C364.216 98.5618 364.9 98.8378 365.428 99.3898C365.98 99.9418 366.256 100.626 366.256 101.442C366.256 102.234 365.98 102.906 365.428 103.458C364.9 104.034 364.216 104.322 363.376 104.322ZM363.376 137.104C362.536 137.104 361.852 136.816 361.324 136.24C360.796 135.688 360.532 135.016 360.532 134.224C360.532 133.408 360.796 132.724 361.324 132.172C361.852 131.62 362.536 131.344 363.376 131.344C364.216 131.344 364.9 131.62 365.428 132.172C365.98 132.724 366.256 133.408 366.256 134.224C366.256 135.016 365.98 135.688 365.428 136.24C364.9 136.816 364.216 137.104 363.376 137.104ZM363.376 169.887C362.536 169.887 361.852 169.599 361.324 169.023C360.796 168.471 360.532 167.799 360.532 167.007C360.532 166.191 360.796 165.507 361.324 164.955C361.852 164.403 362.536 164.127 363.376 164.127C364.216 164.127 364.9 164.403 365.428 164.955C365.98 165.507 366.256 166.191 366.256 167.007C366.256 167.799 365.98 168.471 365.428 169.023C364.9 169.599 364.216 169.887 363.376 169.887ZM363.376 202.669C362.536 202.669 361.852 202.381 361.324 201.805C360.796 201.253 360.532 200.581 360.532 199.789C360.532 198.973 360.796 198.289 361.324 197.737C361.852 197.185 362.536 196.909 363.376 196.909C364.216 196.909 364.9 197.185 365.428 197.737C365.98 198.289 366.256 198.973 366.256 199.789C366.256 200.581 365.98 201.253 365.428 201.805C364.9 202.381 364.216 202.669 363.376 202.669ZM363.376 235.452C362.536 235.452 361.852 235.164 361.324 234.588C360.796 234.036 360.532 233.364 360.532 232.572C360.532 231.756 360.796 231.072 361.324 230.52C361.852 229.968 362.536 229.692 363.376 229.692C364.216 229.692 364.9 229.968 365.428 230.52C365.98 231.072 366.256 231.756 366.256 232.572C366.256 233.364 365.98 234.036 365.428 234.588C364.9 235.164 364.216 235.452 363.376 235.452ZM363.376 268.234C362.536 268.234 361.852 267.946 361.324 267.37C360.796 266.818 360.532 266.146 360.532 265.354C360.532 264.538 360.796 263.854 361.324 263.302C361.852 262.75 362.536 262.474 363.376 262.474C364.216 262.474 364.9 262.75 365.428 263.302C365.98 263.854 366.256 264.538 366.256 265.354C366.256 266.146 365.98 266.818 365.428 267.37C364.9 267.946 364.216 268.234 363.376 268.234ZM363.376 301.017C362.536 301.017 361.852 300.729 361.324 300.153C360.796 299.601 360.532 298.929 360.532 298.137C360.532 297.321 360.796 296.637 361.324 296.085C361.852 295.533 362.536 295.257 363.376 295.257C364.216 295.257 364.9 295.533 365.428 296.085C365.98 296.637 366.256 297.321 366.256 298.137C366.256 298.929 365.98 299.601 365.428 300.153C364.9 300.729 364.216 301.017 363.376 301.017ZM363.376 333.799C362.536 333.799 361.852 333.511 361.324 332.935C360.796 332.383 360.532 331.711 360.532 330.919C360.532 330.103 360.796 329.419 361.324 328.867C361.852 328.315 362.536 328.039 363.376 328.039C364.216 328.039 364.9 328.315 365.428 328.867C365.98 329.419 366.256 330.103 366.256 330.919C366.256 331.711 365.98 332.383 365.428 332.935C364.9 333.511 364.216 333.799 363.376 333.799ZM318.376 5.97427C317.536 5.97427 316.852 5.68627 316.324 5.11027C315.796 4.55827 315.532 3.88627 315.532 3.09427C315.532 2.27827 315.796 1.59427 316.324 1.04227C316.852 0.490273 317.536 0.214273 318.376 0.214273C319.216 0.214273 319.9 0.490273 320.428 1.04227C320.98 1.59427 321.256 2.27827 321.256 3.09427C321.256 3.88627 320.98 4.55827 320.428 5.11027C319.9 5.68627 319.216 5.97427 318.376 5.97427ZM318.376 38.7568C317.536 38.7568 316.852 38.4688 316.324 37.8928C315.796 37.3408 315.532 36.6688 315.532 35.8768C315.532 35.0608 315.796 34.3768 316.324 33.8248C316.852 33.2728 317.536 32.9968 318.376 32.9968C319.216 32.9968 319.9 33.2728 320.428 33.8248C320.98 34.3768 321.256 35.0608 321.256 35.8768C321.256 36.6688 320.98 37.3408 320.428 37.8928C319.9 38.4688 319.216 38.7568 318.376 38.7568ZM318.376 71.5393C317.536 71.5393 316.852 71.2513 316.324 70.6753C315.796 70.1233 315.532 69.4513 315.532 68.6593C315.532 67.8433 315.796 67.1593 316.324 66.6073C316.852 66.0553 317.536 65.7793 318.376 65.7793C319.216 65.7793 319.9 66.0553 320.428 66.6073C320.98 67.1593 321.256 67.8433 321.256 68.6593C321.256 69.4513 320.98 70.1233 320.428 70.6753C319.9 71.2513 319.216 71.5393 318.376 71.5393ZM318.376 104.322C317.536 104.322 316.852 104.034 316.324 103.458C315.796 102.906 315.532 102.234 315.532 101.442C315.532 100.626 315.796 99.9418 316.324 99.3898C316.852 98.8378 317.536 98.5618 318.376 98.5618C319.216 98.5618 319.9 98.8378 320.428 99.3898C320.98 99.9418 321.256 100.626 321.256 101.442C321.256 102.234 320.98 102.906 320.428 103.458C319.9 104.034 319.216 104.322 318.376 104.322ZM318.376 137.104C317.536 137.104 316.852 136.816 316.324 136.24C315.796 135.688 315.532 135.016 315.532 134.224C315.532 133.408 315.796 132.724 316.324 132.172C316.852 131.62 317.536 131.344 318.376 131.344C319.216 131.344 319.9 131.62 320.428 132.172C320.98 132.724 321.256 133.408 321.256 134.224C321.256 135.016 320.98 135.688 320.428 136.24C319.9 136.816 319.216 137.104 318.376 137.104ZM318.376 169.887C317.536 169.887 316.852 169.599 316.324 169.023C315.796 168.471 315.532 167.799 315.532 167.007C315.532 166.191 315.796 165.507 316.324 164.955C316.852 164.403 317.536 164.127 318.376 164.127C319.216 164.127 319.9 164.403 320.428 164.955C320.98 165.507 321.256 166.191 321.256 167.007C321.256 167.799 320.98 168.471 320.428 169.023C319.9 169.599 319.216 169.887 318.376 169.887ZM318.376 202.669C317.536 202.669 316.852 202.381 316.324 201.805C315.796 201.253 315.532 200.581 315.532 199.789C315.532 198.973 315.796 198.289 316.324 197.737C316.852 197.185 317.536 196.909 318.376 196.909C319.216 196.909 319.9 197.185 320.428 197.737C320.98 198.289 321.256 198.973 321.256 199.789C321.256 200.581 320.98 201.253 320.428 201.805C319.9 202.381 319.216 202.669 318.376 202.669ZM318.376 235.452C317.536 235.452 316.852 235.164 316.324 234.588C315.796 234.036 315.532 233.364 315.532 232.572C315.532 231.756 315.796 231.072 316.324 230.52C316.852 229.968 317.536 229.692 318.376 229.692C319.216 229.692 319.9 229.968 320.428 230.52C320.98 231.072 321.256 231.756 321.256 232.572C321.256 233.364 320.98 234.036 320.428 234.588C319.9 235.164 319.216 235.452 318.376 235.452ZM318.376 268.234C317.536 268.234 316.852 267.946 316.324 267.37C315.796 266.818 315.532 266.146 315.532 265.354C315.532 264.538 315.796 263.854 316.324 263.302C316.852 262.75 317.536 262.474 318.376 262.474C319.216 262.474 319.9 262.75 320.428 263.302C320.98 263.854 321.256 264.538 321.256 265.354C321.256 266.146 320.98 266.818 320.428 267.37C319.9 267.946 319.216 268.234 318.376 268.234ZM318.376 301.017C317.536 301.017 316.852 300.729 316.324 300.153C315.796 299.601 315.532 298.929 315.532 298.137C315.532 297.321 315.796 296.637 316.324 296.085C316.852 295.533 317.536 295.257 318.376 295.257C319.216 295.257 319.9 295.533 320.428 296.085C320.98 296.637 321.256 297.321 321.256 298.137C321.256 298.929 320.98 299.601 320.428 300.153C319.9 300.729 319.216 301.017 318.376 301.017ZM318.376 333.799C317.536 333.799 316.852 333.511 316.324 332.935C315.796 332.383 315.532 331.711 315.532 330.919C315.532 330.103 315.796 329.419 316.324 328.867C316.852 328.315 317.536 328.039 318.376 328.039C319.216 328.039 319.9 328.315 320.428 328.867C320.98 329.419 321.256 330.103 321.256 330.919C321.256 331.711 320.98 332.383 320.428 332.935C319.9 333.511 319.216 333.799 318.376 333.799ZM273.376 5.97427C272.536 5.97427 271.852 5.68627 271.324 5.11027C270.796 4.55827 270.532 3.88627 270.532 3.09427C270.532 2.27827 270.796 1.59427 271.324 1.04227C271.852 0.490273 272.536 0.214273 273.376 0.214273C274.216 0.214273 274.9 0.490273 275.428 1.04227C275.98 1.59427 276.256 2.27827 276.256 3.09427C276.256 3.88627 275.98 4.55827 275.428 5.11027C274.9 5.68627 274.216 5.97427 273.376 5.97427ZM273.376 38.7568C272.536 38.7568 271.852 38.4688 271.324 37.8928C270.796 37.3408 270.532 36.6688 270.532 35.8768C270.532 35.0608 270.796 34.3768 271.324 33.8248C271.852 33.2728 272.536 32.9968 273.376 32.9968C274.216 32.9968 274.9 33.2728 275.428 33.8248C275.98 34.3768 276.256 35.0608 276.256 35.8768C276.256 36.6688 275.98 37.3408 275.428 37.8928C274.9 38.4688 274.216 38.7568 273.376 38.7568ZM273.376 71.5393C272.536 71.5393 271.852 71.2513 271.324 70.6753C270.796 70.1233 270.532 69.4513 270.532 68.6593C270.532 67.8433 270.796 67.1593 271.324 66.6073C271.852 66.0553 272.536 65.7793 273.376 65.7793C274.216 65.7793 274.9 66.0553 275.428 66.6073C275.98 67.1593 276.256 67.8433 276.256 68.6593C276.256 69.4513 275.98 70.1233 275.428 70.6753C274.9 71.2513 274.216 71.5393 273.376 71.5393ZM273.376 104.322C272.536 104.322 271.852 104.034 271.324 103.458C270.796 102.906 270.532 102.234 270.532 101.442C270.532 100.626 270.796 99.9418 271.324 99.3898C271.852 98.8378 272.536 98.5618 273.376 98.5618C274.216 98.5618 274.9 98.8378 275.428 99.3898C275.98 99.9418 276.256 100.626 276.256 101.442C276.256 102.234 275.98 102.906 275.428 103.458C274.9 104.034 274.216 104.322 273.376 104.322ZM273.376 137.104C272.536 137.104 271.852 136.816 271.324 136.24C270.796 135.688 270.532 135.016 270.532 134.224C270.532 133.408 270.796 132.724 271.324 132.172C271.852 131.62 272.536 131.344 273.376 131.344C274.216 131.344 274.9 131.62 275.428 132.172C275.98 132.724 276.256 133.408 276.256 134.224C276.256 135.016 275.98 135.688 275.428 136.24C274.9 136.816 274.216 137.104 273.376 137.104ZM273.376 169.887C272.536 169.887 271.852 169.599 271.324 169.023C270.796 168.471 270.532 167.799 270.532 167.007C270.532 166.191 270.796 165.507 271.324 164.955C271.852 164.403 272.536 164.127 273.376 164.127C274.216 164.127 274.9 164.403 275.428 164.955C275.98 165.507 276.256 166.191 276.256 167.007C276.256 167.799 275.98 168.471 275.428 169.023C274.9 169.599 274.216 169.887 273.376 169.887ZM273.376 202.669C272.536 202.669 271.852 202.381 271.324 201.805C270.796 201.253 270.532 200.581 270.532 199.789C270.532 198.973 270.796 198.289 271.324 197.737C271.852 197.185 272.536 196.909 273.376 196.909C274.216 196.909 274.9 197.185 275.428 197.737C275.98 198.289 276.256 198.973 276.256 199.789C276.256 200.581 275.98 201.253 275.428 201.805C274.9 202.381 274.216 202.669 273.376 202.669ZM273.376 235.452C272.536 235.452 271.852 235.164 271.324 234.588C270.796 234.036 270.532 233.364 270.532 232.572C270.532 231.756 270.796 231.072 271.324 230.52C271.852 229.968 272.536 229.692 273.376 229.692C274.216 229.692 274.9 229.968 275.428 230.52C275.98 231.072 276.256 231.756 276.256 232.572C276.256 233.364 275.98 234.036 275.428 234.588C274.9 235.164 274.216 235.452 273.376 235.452ZM273.376 268.234C272.536 268.234 271.852 267.946 271.324 267.37C270.796 266.818 270.532 266.146 270.532 265.354C270.532 264.538 270.796 263.854 271.324 263.302C271.852 262.75 272.536 262.474 273.376 262.474C274.216 262.474 274.9 262.75 275.428 263.302C275.98 263.854 276.256 264.538 276.256 265.354C276.256 266.146 275.98 266.818 275.428 267.37C274.9 267.946 274.216 268.234 273.376 268.234ZM273.376 301.017C272.536 301.017 271.852 300.729 271.324 300.153C270.796 299.601 270.532 298.929 270.532 298.137C270.532 297.321 270.796 296.637 271.324 296.085C271.852 295.533 272.536 295.257 273.376 295.257C274.216 295.257 274.9 295.533 275.428 296.085C275.98 296.637 276.256 297.321 276.256 298.137C276.256 298.929 275.98 299.601 275.428 300.153C274.9 300.729 274.216 301.017 273.376 301.017ZM273.376 333.799C272.536 333.799 271.852 333.511 271.324 332.935C270.796 332.383 270.532 331.711 270.532 330.919C270.532 330.103 270.796 329.419 271.324 328.867C271.852 328.315 272.536 328.039 273.376 328.039C274.216 328.039 274.9 328.315 275.428 328.867C275.98 329.419 276.256 330.103 276.256 330.919C276.256 331.711 275.98 332.383 275.428 332.935C274.9 333.511 274.216 333.799 273.376 333.799ZM228.376 5.97427C227.536 5.97427 226.852 5.68627 226.324 5.11027C225.796 4.55827 225.532 3.88627 225.532 3.09427C225.532 2.27827 225.796 1.59427 226.324 1.04227C226.852 0.490273 227.536 0.214273 228.376 0.214273C229.216 0.214273 229.9 0.490273 230.428 1.04227C230.98 1.59427 231.256 2.27827 231.256 3.09427C231.256 3.88627 230.98 4.55827 230.428 5.11027C229.9 5.68627 229.216 5.97427 228.376 5.97427ZM228.376 38.7568C227.536 38.7568 226.852 38.4688 226.324 37.8928C225.796 37.3408 225.532 36.6688 225.532 35.8768C225.532 35.0608 225.796 34.3768 226.324 33.8248C226.852 33.2728 227.536 32.9968 228.376 32.9968C229.216 32.9968 229.9 33.2728 230.428 33.8248C230.98 34.3768 231.256 35.0608 231.256 35.8768C231.256 36.6688 230.98 37.3408 230.428 37.8928C229.9 38.4688 229.216 38.7568 228.376 38.7568ZM228.376 71.5393C227.536 71.5393 226.852 71.2513 226.324 70.6753C225.796 70.1233 225.532 69.4513 225.532 68.6593C225.532 67.8433 225.796 67.1593 226.324 66.6073C226.852 66.0553 227.536 65.7793 228.376 65.7793C229.216 65.7793 229.9 66.0553 230.428 66.6073C230.98 67.1593 231.256 67.8433 231.256 68.6593C231.256 69.4513 230.98 70.1233 230.428 70.6753C229.9 71.2513 229.216 71.5393 228.376 71.5393ZM228.376 104.322C227.536 104.322 226.852 104.034 226.324 103.458C225.796 102.906 225.532 102.234 225.532 101.442C225.532 100.626 225.796 99.9418 226.324 99.3898C226.852 98.8378 227.536 98.5618 228.376 98.5618C229.216 98.5618 229.9 98.8378 230.428 99.3898C230.98 99.9418 231.256 100.626 231.256 101.442C231.256 102.234 230.98 102.906 230.428 103.458C229.9 104.034 229.216 104.322 228.376 104.322ZM228.376 137.104C227.536 137.104 226.852 136.816 226.324 136.24C225.796 135.688 225.532 135.016 225.532 134.224C225.532 133.408 225.796 132.724 226.324 132.172C226.852 131.62 227.536 131.344 228.376 131.344C229.216 131.344 229.9 131.62 230.428 132.172C230.98 132.724 231.256 133.408 231.256 134.224C231.256 135.016 230.98 135.688 230.428 136.24C229.9 136.816 229.216 137.104 228.376 137.104ZM228.376 169.887C227.536 169.887 226.852 169.599 226.324 169.023C225.796 168.471 225.532 167.799 225.532 167.007C225.532 166.191 225.796 165.507 226.324 164.955C226.852 164.403 227.536 164.127 228.376 164.127C229.216 164.127 229.9 164.403 230.428 164.955C230.98 165.507 231.256 166.191 231.256 167.007C231.256 167.799 230.98 168.471 230.428 169.023C229.9 169.599 229.216 169.887 228.376 169.887ZM228.376 202.669C227.536 202.669 226.852 202.381 226.324 201.805C225.796 201.253 225.532 200.581 225.532 199.789C225.532 198.973 225.796 198.289 226.324 197.737C226.852 197.185 227.536 196.909 228.376 196.909C229.216 196.909 229.9 197.185 230.428 197.737C230.98 198.289 231.256 198.973 231.256 199.789C231.256 200.581 230.98 201.253 230.428 201.805C229.9 202.381 229.216 202.669 228.376 202.669ZM228.376 235.452C227.536 235.452 226.852 235.164 226.324 234.588C225.796 234.036 225.532 233.364 225.532 232.572C225.532 231.756 225.796 231.072 226.324 230.52C226.852 229.968 227.536 229.692 228.376 229.692C229.216 229.692 229.9 229.968 230.428 230.52C230.98 231.072 231.256 231.756 231.256 232.572C231.256 233.364 230.98 234.036 230.428 234.588C229.9 235.164 229.216 235.452 228.376 235.452ZM228.376 268.234C227.536 268.234 226.852 267.946 226.324 267.37C225.796 266.818 225.532 266.146 225.532 265.354C225.532 264.538 225.796 263.854 226.324 263.302C226.852 262.75 227.536 262.474 228.376 262.474C229.216 262.474 229.9 262.75 230.428 263.302C230.98 263.854 231.256 264.538 231.256 265.354C231.256 266.146 230.98 266.818 230.428 267.37C229.9 267.946 229.216 268.234 228.376 268.234ZM228.376 301.017C227.536 301.017 226.852 300.729 226.324 300.153C225.796 299.601 225.532 298.929 225.532 298.137C225.532 297.321 225.796 296.637 226.324 296.085C226.852 295.533 227.536 295.257 228.376 295.257C229.216 295.257 229.9 295.533 230.428 296.085C230.98 296.637 231.256 297.321 231.256 298.137C231.256 298.929 230.98 299.601 230.428 300.153C229.9 300.729 229.216 301.017 228.376 301.017ZM228.376 333.799C227.536 333.799 226.852 333.511 226.324 332.935C225.796 332.383 225.532 331.711 225.532 330.919C225.532 330.103 225.796 329.419 226.324 328.867C226.852 328.315 227.536 328.039 228.376 328.039C229.216 328.039 229.9 328.315 230.428 328.867C230.98 329.419 231.256 330.103 231.256 330.919C231.256 331.711 230.98 332.383 230.428 332.935C229.9 333.511 229.216 333.799 228.376 333.799ZM183.376 5.97427C182.536 5.97427 181.852 5.68627 181.324 5.11027C180.796 4.55827 180.532 3.88627 180.532 3.09427C180.532 2.27827 180.796 1.59427 181.324 1.04227C181.852 0.490273 182.536 0.214273 183.376 0.214273C184.216 0.214273 184.9 0.490273 185.428 1.04227C185.98 1.59427 186.256 2.27827 186.256 3.09427C186.256 3.88627 185.98 4.55827 185.428 5.11027C184.9 5.68627 184.216 5.97427 183.376 5.97427ZM183.376 38.7568C182.536 38.7568 181.852 38.4688 181.324 37.8928C180.796 37.3408 180.532 36.6688 180.532 35.8768C180.532 35.0608 180.796 34.3768 181.324 33.8248C181.852 33.2728 182.536 32.9968 183.376 32.9968C184.216 32.9968 184.9 33.2728 185.428 33.8248C185.98 34.3768 186.256 35.0608 186.256 35.8768C186.256 36.6688 185.98 37.3408 185.428 37.8928C184.9 38.4688 184.216 38.7568 183.376 38.7568ZM183.376 71.5393C182.536 71.5393 181.852 71.2513 181.324 70.6753C180.796 70.1233 180.532 69.4513 180.532 68.6593C180.532 67.8433 180.796 67.1593 181.324 66.6073C181.852 66.0553 182.536 65.7793 183.376 65.7793C184.216 65.7793 184.9 66.0553 185.428 66.6073C185.98 67.1593 186.256 67.8433 186.256 68.6593C186.256 69.4513 185.98 70.1233 185.428 70.6753C184.9 71.2513 184.216 71.5393 183.376 71.5393ZM183.376 104.322C182.536 104.322 181.852 104.034 181.324 103.458C180.796 102.906 180.532 102.234 180.532 101.442C180.532 100.626 180.796 99.9418 181.324 99.3898C181.852 98.8378 182.536 98.5618 183.376 98.5618C184.216 98.5618 184.9 98.8378 185.428 99.3898C185.98 99.9418 186.256 100.626 186.256 101.442C186.256 102.234 185.98 102.906 185.428 103.458C184.9 104.034 184.216 104.322 183.376 104.322ZM183.376 137.104C182.536 137.104 181.852 136.816 181.324 136.24C180.796 135.688 180.532 135.016 180.532 134.224C180.532 133.408 180.796 132.724 181.324 132.172C181.852 131.62 182.536 131.344 183.376 131.344C184.216 131.344 184.9 131.62 185.428 132.172C185.98 132.724 186.256 133.408 186.256 134.224C186.256 135.016 185.98 135.688 185.428 136.24C184.9 136.816 184.216 137.104 183.376 137.104ZM183.376 169.887C182.536 169.887 181.852 169.599 181.324 169.023C180.796 168.471 180.532 167.799 180.532 167.007C180.532 166.191 180.796 165.507 181.324 164.955C181.852 164.403 182.536 164.127 183.376 164.127C184.216 164.127 184.9 164.403 185.428 164.955C185.98 165.507 186.256 166.191 186.256 167.007C186.256 167.799 185.98 168.471 185.428 169.023C184.9 169.599 184.216 169.887 183.376 169.887ZM183.376 202.669C182.536 202.669 181.852 202.381 181.324 201.805C180.796 201.253 180.532 200.581 180.532 199.789C180.532 198.973 180.796 198.289 181.324 197.737C181.852 197.185 182.536 196.909 183.376 196.909C184.216 196.909 184.9 197.185 185.428 197.737C185.98 198.289 186.256 198.973 186.256 199.789C186.256 200.581 185.98 201.253 185.428 201.805C184.9 202.381 184.216 202.669 183.376 202.669ZM183.376 235.452C182.536 235.452 181.852 235.164 181.324 234.588C180.796 234.036 180.532 233.364 180.532 232.572C180.532 231.756 180.796 231.072 181.324 230.52C181.852 229.968 182.536 229.692 183.376 229.692C184.216 229.692 184.9 229.968 185.428 230.52C185.98 231.072 186.256 231.756 186.256 232.572C186.256 233.364 185.98 234.036 185.428 234.588C184.9 235.164 184.216 235.452 183.376 235.452ZM183.376 268.234C182.536 268.234 181.852 267.946 181.324 267.37C180.796 266.818 180.532 266.146 180.532 265.354C180.532 264.538 180.796 263.854 181.324 263.302C181.852 262.75 182.536 262.474 183.376 262.474C184.216 262.474 184.9 262.75 185.428 263.302C185.98 263.854 186.256 264.538 186.256 265.354C186.256 266.146 185.98 266.818 185.428 267.37C184.9 267.946 184.216 268.234 183.376 268.234ZM183.376 301.017C182.536 301.017 181.852 300.729 181.324 300.153C180.796 299.601 180.532 298.929 180.532 298.137C180.532 297.321 180.796 296.637 181.324 296.085C181.852 295.533 182.536 295.257 183.376 295.257C184.216 295.257 184.9 295.533 185.428 296.085C185.98 296.637 186.256 297.321 186.256 298.137C186.256 298.929 185.98 299.601 185.428 300.153C184.9 300.729 184.216 301.017 183.376 301.017ZM183.376 333.799C182.536 333.799 181.852 333.511 181.324 332.935C180.796 332.383 180.532 331.711 180.532 330.919C180.532 330.103 180.796 329.419 181.324 328.867C181.852 328.315 182.536 328.039 183.376 328.039C184.216 328.039 184.9 328.315 185.428 328.867C185.98 329.419 186.256 330.103 186.256 330.919C186.256 331.711 185.98 332.383 185.428 332.935C184.9 333.511 184.216 333.799 183.376 333.799ZM138.376 5.97427C137.536 5.97427 136.852 5.68627 136.324 5.11027C135.796 4.55827 135.532 3.88627 135.532 3.09427C135.532 2.27827 135.796 1.59427 136.324 1.04227C136.852 0.490273 137.536 0.214273 138.376 0.214273C139.216 0.214273 139.9 0.490273 140.428 1.04227C140.98 1.59427 141.256 2.27827 141.256 3.09427C141.256 3.88627 140.98 4.55827 140.428 5.11027C139.9 5.68627 139.216 5.97427 138.376 5.97427ZM138.376 38.7568C137.536 38.7568 136.852 38.4688 136.324 37.8928C135.796 37.3408 135.532 36.6688 135.532 35.8768C135.532 35.0608 135.796 34.3768 136.324 33.8248C136.852 33.2728 137.536 32.9968 138.376 32.9968C139.216 32.9968 139.9 33.2728 140.428 33.8248C140.98 34.3768 141.256 35.0608 141.256 35.8768C141.256 36.6688 140.98 37.3408 140.428 37.8928C139.9 38.4688 139.216 38.7568 138.376 38.7568ZM138.376 71.5393C137.536 71.5393 136.852 71.2513 136.324 70.6753C135.796 70.1233 135.532 69.4513 135.532 68.6593C135.532 67.8433 135.796 67.1593 136.324 66.6073C136.852 66.0553 137.536 65.7793 138.376 65.7793C139.216 65.7793 139.9 66.0553 140.428 66.6073C140.98 67.1593 141.256 67.8433 141.256 68.6593C141.256 69.4513 140.98 70.1233 140.428 70.6753C139.9 71.2513 139.216 71.5393 138.376 71.5393ZM138.376 104.322C137.536 104.322 136.852 104.034 136.324 103.458C135.796 102.906 135.532 102.234 135.532 101.442C135.532 100.626 135.796 99.9418 136.324 99.3898C136.852 98.8378 137.536 98.5618 138.376 98.5618C139.216 98.5618 139.9 98.8378 140.428 99.3898C140.98 99.9418 141.256 100.626 141.256 101.442C141.256 102.234 140.98 102.906 140.428 103.458C139.9 104.034 139.216 104.322 138.376 104.322ZM138.376 137.104C137.536 137.104 136.852 136.816 136.324 136.24C135.796 135.688 135.532 135.016 135.532 134.224C135.532 133.408 135.796 132.724 136.324 132.172C136.852 131.62 137.536 131.344 138.376 131.344C139.216 131.344 139.9 131.62 140.428 132.172C140.98 132.724 141.256 133.408 141.256 134.224C141.256 135.016 140.98 135.688 140.428 136.24C139.9 136.816 139.216 137.104 138.376 137.104ZM138.376 169.887C137.536 169.887 136.852 169.599 136.324 169.023C135.796 168.471 135.532 167.799 135.532 167.007C135.532 166.191 135.796 165.507 136.324 164.955C136.852 164.403 137.536 164.127 138.376 164.127C139.216 164.127 139.9 164.403 140.428 164.955C140.98 165.507 141.256 166.191 141.256 167.007C141.256 167.799 140.98 168.471 140.428 169.023C139.9 169.599 139.216 169.887 138.376 169.887ZM138.376 202.669C137.536 202.669 136.852 202.381 136.324 201.805C135.796 201.253 135.532 200.581 135.532 199.789C135.532 198.973 135.796 198.289 136.324 197.737C136.852 197.185 137.536 196.909 138.376 196.909C139.216 196.909 139.9 197.185 140.428 197.737C140.98 198.289 141.256 198.973 141.256 199.789C141.256 200.581 140.98 201.253 140.428 201.805C139.9 202.381 139.216 202.669 138.376 202.669ZM138.376 235.452C137.536 235.452 136.852 235.164 136.324 234.588C135.796 234.036 135.532 233.364 135.532 232.572C135.532 231.756 135.796 231.072 136.324 230.52C136.852 229.968 137.536 229.692 138.376 229.692C139.216 229.692 139.9 229.968 140.428 230.52C140.98 231.072 141.256 231.756 141.256 232.572C141.256 233.364 140.98 234.036 140.428 234.588C139.9 235.164 139.216 235.452 138.376 235.452ZM138.376 268.234C137.536 268.234 136.852 267.946 136.324 267.37C135.796 266.818 135.532 266.146 135.532 265.354C135.532 264.538 135.796 263.854 136.324 263.302C136.852 262.75 137.536 262.474 138.376 262.474C139.216 262.474 139.9 262.75 140.428 263.302C140.98 263.854 141.256 264.538 141.256 265.354C141.256 266.146 140.98 266.818 140.428 267.37C139.9 267.946 139.216 268.234 138.376 268.234ZM138.376 301.017C137.536 301.017 136.852 300.729 136.324 300.153C135.796 299.601 135.532 298.929 135.532 298.137C135.532 297.321 135.796 296.637 136.324 296.085C136.852 295.533 137.536 295.257 138.376 295.257C139.216 295.257 139.9 295.533 140.428 296.085C140.98 296.637 141.256 297.321 141.256 298.137C141.256 298.929 140.98 299.601 140.428 300.153C139.9 300.729 139.216 301.017 138.376 301.017ZM138.376 333.799C137.536 333.799 136.852 333.511 136.324 332.935C135.796 332.383 135.532 331.711 135.532 330.919C135.532 330.103 135.796 329.419 136.324 328.867C136.852 328.315 137.536 328.039 138.376 328.039C139.216 328.039 139.9 328.315 140.428 328.867C140.98 329.419 141.256 330.103 141.256 330.919C141.256 331.711 140.98 332.383 140.428 332.935C139.9 333.511 139.216 333.799 138.376 333.799ZM93.376 5.97427C92.536 5.97427 91.852 5.68627 91.324 5.11027C90.796 4.55827 90.532 3.88627 90.532 3.09427C90.532 2.27827 90.796 1.59427 91.324 1.04227C91.852 0.490273 92.536 0.214273 93.376 0.214273C94.216 0.214273 94.9 0.490273 95.428 1.04227C95.98 1.59427 96.256 2.27827 96.256 3.09427C96.256 3.88627 95.98 4.55827 95.428 5.11027C94.9 5.68627 94.216 5.97427 93.376 5.97427ZM93.376 38.7568C92.536 38.7568 91.852 38.4688 91.324 37.8928C90.796 37.3408 90.532 36.6688 90.532 35.8768C90.532 35.0608 90.796 34.3768 91.324 33.8248C91.852 33.2728 92.536 32.9968 93.376 32.9968C94.216 32.9968 94.9 33.2728 95.428 33.8248C95.98 34.3768 96.256 35.0608 96.256 35.8768C96.256 36.6688 95.98 37.3408 95.428 37.8928C94.9 38.4688 94.216 38.7568 93.376 38.7568ZM93.376 71.5393C92.536 71.5393 91.852 71.2513 91.324 70.6753C90.796 70.1233 90.532 69.4513 90.532 68.6593C90.532 67.8433 90.796 67.1593 91.324 66.6073C91.852 66.0553 92.536 65.7793 93.376 65.7793C94.216 65.7793 94.9 66.0553 95.428 66.6073C95.98 67.1593 96.256 67.8433 96.256 68.6593C96.256 69.4513 95.98 70.1233 95.428 70.6753C94.9 71.2513 94.216 71.5393 93.376 71.5393ZM93.376 104.322C92.536 104.322 91.852 104.034 91.324 103.458C90.796 102.906 90.532 102.234 90.532 101.442C90.532 100.626 90.796 99.9418 91.324 99.3898C91.852 98.8378 92.536 98.5618 93.376 98.5618C94.216 98.5618 94.9 98.8378 95.428 99.3898C95.98 99.9418 96.256 100.626 96.256 101.442C96.256 102.234 95.98 102.906 95.428 103.458C94.9 104.034 94.216 104.322 93.376 104.322ZM93.376 137.104C92.536 137.104 91.852 136.816 91.324 136.24C90.796 135.688 90.532 135.016 90.532 134.224C90.532 133.408 90.796 132.724 91.324 132.172C91.852 131.62 92.536 131.344 93.376 131.344C94.216 131.344 94.9 131.62 95.428 132.172C95.98 132.724 96.256 133.408 96.256 134.224C96.256 135.016 95.98 135.688 95.428 136.24C94.9 136.816 94.216 137.104 93.376 137.104ZM93.376 169.887C92.536 169.887 91.852 169.599 91.324 169.023C90.796 168.471 90.532 167.799 90.532 167.007C90.532 166.191 90.796 165.507 91.324 164.955C91.852 164.403 92.536 164.127 93.376 164.127C94.216 164.127 94.9 164.403 95.428 164.955C95.98 165.507 96.256 166.191 96.256 167.007C96.256 167.799 95.98 168.471 95.428 169.023C94.9 169.599 94.216 169.887 93.376 169.887ZM93.376 202.669C92.536 202.669 91.852 202.381 91.324 201.805C90.796 201.253 90.532 200.581 90.532 199.789C90.532 198.973 90.796 198.289 91.324 197.737C91.852 197.185 92.536 196.909 93.376 196.909C94.216 196.909 94.9 197.185 95.428 197.737C95.98 198.289 96.256 198.973 96.256 199.789C96.256 200.581 95.98 201.253 95.428 201.805C94.9 202.381 94.216 202.669 93.376 202.669ZM93.376 235.452C92.536 235.452 91.852 235.164 91.324 234.588C90.796 234.036 90.532 233.364 90.532 232.572C90.532 231.756 90.796 231.072 91.324 230.52C91.852 229.968 92.536 229.692 93.376 229.692C94.216 229.692 94.9 229.968 95.428 230.52C95.98 231.072 96.256 231.756 96.256 232.572C96.256 233.364 95.98 234.036 95.428 234.588C94.9 235.164 94.216 235.452 93.376 235.452ZM93.376 268.234C92.536 268.234 91.852 267.946 91.324 267.37C90.796 266.818 90.532 266.146 90.532 265.354C90.532 264.538 90.796 263.854 91.324 263.302C91.852 262.75 92.536 262.474 93.376 262.474C94.216 262.474 94.9 262.75 95.428 263.302C95.98 263.854 96.256 264.538 96.256 265.354C96.256 266.146 95.98 266.818 95.428 267.37C94.9 267.946 94.216 268.234 93.376 268.234ZM93.376 301.017C92.536 301.017 91.852 300.729 91.324 300.153C90.796 299.601 90.532 298.929 90.532 298.137C90.532 297.321 90.796 296.637 91.324 296.085C91.852 295.533 92.536 295.257 93.376 295.257C94.216 295.257 94.9 295.533 95.428 296.085C95.98 296.637 96.256 297.321 96.256 298.137C96.256 298.929 95.98 299.601 95.428 300.153C94.9 300.729 94.216 301.017 93.376 301.017ZM93.376 333.799C92.536 333.799 91.852 333.511 91.324 332.935C90.796 332.383 90.532 331.711 90.532 330.919C90.532 330.103 90.796 329.419 91.324 328.867C91.852 328.315 92.536 328.039 93.376 328.039C94.216 328.039 94.9 328.315 95.428 328.867C95.98 329.419 96.256 330.103 96.256 330.919C96.256 331.711 95.98 332.383 95.428 332.935C94.9 333.511 94.216 333.799 93.376 333.799ZM48.376 5.97427C47.536 5.97427 46.852 5.68627 46.324 5.11027C45.796 4.55827 45.532 3.88627 45.532 3.09427C45.532 2.27827 45.796 1.59427 46.324 1.04227C46.852 0.490273 47.536 0.214273 48.376 0.214273C49.216 0.214273 49.9 0.490273 50.428 1.04227C50.98 1.59427 51.256 2.27827 51.256 3.09427C51.256 3.88627 50.98 4.55827 50.428 5.11027C49.9 5.68627 49.216 5.97427 48.376 5.97427ZM48.376 38.7568C47.536 38.7568 46.852 38.4688 46.324 37.8928C45.796 37.3408 45.532 36.6688 45.532 35.8768C45.532 35.0608 45.796 34.3768 46.324 33.8248C46.852 33.2728 47.536 32.9968 48.376 32.9968C49.216 32.9968 49.9 33.2728 50.428 33.8248C50.98 34.3768 51.256 35.0608 51.256 35.8768C51.256 36.6688 50.98 37.3408 50.428 37.8928C49.9 38.4688 49.216 38.7568 48.376 38.7568ZM48.376 71.5393C47.536 71.5393 46.852 71.2513 46.324 70.6753C45.796 70.1233 45.532 69.4513 45.532 68.6593C45.532 67.8433 45.796 67.1593 46.324 66.6073C46.852 66.0553 47.536 65.7793 48.376 65.7793C49.216 65.7793 49.9 66.0553 50.428 66.6073C50.98 67.1593 51.256 67.8433 51.256 68.6593C51.256 69.4513 50.98 70.1233 50.428 70.6753C49.9 71.2513 49.216 71.5393 48.376 71.5393ZM48.376 104.322C47.536 104.322 46.852 104.034 46.324 103.458C45.796 102.906 45.532 102.234 45.532 101.442C45.532 100.626 45.796 99.9418 46.324 99.3898C46.852 98.8378 47.536 98.5618 48.376 98.5618C49.216 98.5618 49.9 98.8378 50.428 99.3898C50.98 99.9418 51.256 100.626 51.256 101.442C51.256 102.234 50.98 102.906 50.428 103.458C49.9 104.034 49.216 104.322 48.376 104.322ZM48.376 137.104C47.536 137.104 46.852 136.816 46.324 136.24C45.796 135.688 45.532 135.016 45.532 134.224C45.532 133.408 45.796 132.724 46.324 132.172C46.852 131.62 47.536 131.344 48.376 131.344C49.216 131.344 49.9 131.62 50.428 132.172C50.98 132.724 51.256 133.408 51.256 134.224C51.256 135.016 50.98 135.688 50.428 136.24C49.9 136.816 49.216 137.104 48.376 137.104ZM48.376 169.887C47.536 169.887 46.852 169.599 46.324 169.023C45.796 168.471 45.532 167.799 45.532 167.007C45.532 166.191 45.796 165.507 46.324 164.955C46.852 164.403 47.536 164.127 48.376 164.127C49.216 164.127 49.9 164.403 50.428 164.955C50.98 165.507 51.256 166.191 51.256 167.007C51.256 167.799 50.98 168.471 50.428 169.023C49.9 169.599 49.216 169.887 48.376 169.887ZM48.376 202.669C47.536 202.669 46.852 202.381 46.324 201.805C45.796 201.253 45.532 200.581 45.532 199.789C45.532 198.973 45.796 198.289 46.324 197.737C46.852 197.185 47.536 196.909 48.376 196.909C49.216 196.909 49.9 197.185 50.428 197.737C50.98 198.289 51.256 198.973 51.256 199.789C51.256 200.581 50.98 201.253 50.428 201.805C49.9 202.381 49.216 202.669 48.376 202.669ZM48.376 235.452C47.536 235.452 46.852 235.164 46.324 234.588C45.796 234.036 45.532 233.364 45.532 232.572C45.532 231.756 45.796 231.072 46.324 230.52C46.852 229.968 47.536 229.692 48.376 229.692C49.216 229.692 49.9 229.968 50.428 230.52C50.98 231.072 51.256 231.756 51.256 232.572C51.256 233.364 50.98 234.036 50.428 234.588C49.9 235.164 49.216 235.452 48.376 235.452ZM48.376 268.234C47.536 268.234 46.852 267.946 46.324 267.37C45.796 266.818 45.532 266.146 45.532 265.354C45.532 264.538 45.796 263.854 46.324 263.302C46.852 262.75 47.536 262.474 48.376 262.474C49.216 262.474 49.9 262.75 50.428 263.302C50.98 263.854 51.256 264.538 51.256 265.354C51.256 266.146 50.98 266.818 50.428 267.37C49.9 267.946 49.216 268.234 48.376 268.234ZM48.376 301.017C47.536 301.017 46.852 300.729 46.324 300.153C45.796 299.601 45.532 298.929 45.532 298.137C45.532 297.321 45.796 296.637 46.324 296.085C46.852 295.533 47.536 295.257 48.376 295.257C49.216 295.257 49.9 295.533 50.428 296.085C50.98 296.637 51.256 297.321 51.256 298.137C51.256 298.929 50.98 299.601 50.428 300.153C49.9 300.729 49.216 301.017 48.376 301.017ZM48.376 333.799C47.536 333.799 46.852 333.511 46.324 332.935C45.796 332.383 45.532 331.711 45.532 330.919C45.532 330.103 45.796 329.419 46.324 328.867C46.852 328.315 47.536 328.039 48.376 328.039C49.216 328.039 49.9 328.315 50.428 328.867C50.98 329.419 51.256 330.103 51.256 330.919C51.256 331.711 50.98 332.383 50.428 332.935C49.9 333.511 49.216 333.799 48.376 333.799ZM3.37602 5.97427C2.53602 5.97427 1.85202 5.68627 1.32402 5.11027C0.796024 4.55827 0.532024 3.88627 0.532024 3.09427C0.532024 2.27827 0.796024 1.59427 1.32402 1.04227C1.85202 0.490273 2.53602 0.214273 3.37602 0.214273C4.21602 0.214273 4.90002 0.490273 5.42802 1.04227C5.98002 1.59427 6.25602 2.27827 6.25602 3.09427C6.25602 3.88627 5.98002 4.55827 5.42802 5.11027C4.90002 5.68627 4.21602 5.97427 3.37602 5.97427ZM3.37602 38.7568C2.53602 38.7568 1.85202 38.4688 1.32402 37.8928C0.796024 37.3408 0.532024 36.6688 0.532024 35.8768C0.532024 35.0608 0.796024 34.3768 1.32402 33.8248C1.85202 33.2728 2.53602 32.9968 3.37602 32.9968C4.21602 32.9968 4.90002 33.2728 5.42802 33.8248C5.98002 34.3768 6.25602 35.0608 6.25602 35.8768C6.25602 36.6688 5.98002 37.3408 5.42802 37.8928C4.90002 38.4688 4.21602 38.7568 3.37602 38.7568ZM3.37602 71.5393C2.53602 71.5393 1.85202 71.2513 1.32402 70.6753C0.796024 70.1233 0.532024 69.4513 0.532024 68.6593C0.532024 67.8433 0.796024 67.1593 1.32402 66.6073C1.85202 66.0553 2.53602 65.7793 3.37602 65.7793C4.21602 65.7793 4.90002 66.0553 5.42802 66.6073C5.98002 67.1593 6.25602 67.8433 6.25602 68.6593C6.25602 69.4513 5.98002 70.1233 5.42802 70.6753C4.90002 71.2513 4.21602 71.5393 3.37602 71.5393ZM3.37602 104.322C2.53602 104.322 1.85202 104.034 1.32402 103.458C0.796024 102.906 0.532024 102.234 0.532024 101.442C0.532024 100.626 0.796024 99.9418 1.32402 99.3898C1.85202 98.8378 2.53602 98.5618 3.37602 98.5618C4.21602 98.5618 4.90002 98.8378 5.42802 99.3898C5.98002 99.9418 6.25602 100.626 6.25602 101.442C6.25602 102.234 5.98002 102.906 5.42802 103.458C4.90002 104.034 4.21602 104.322 3.37602 104.322ZM3.37602 137.104C2.53602 137.104 1.85202 136.816 1.32402 136.24C0.796024 135.688 0.532024 135.016 0.532024 134.224C0.532024 133.408 0.796024 132.724 1.32402 132.172C1.85202 131.62 2.53602 131.344 3.37602 131.344C4.21602 131.344 4.90002 131.62 5.42802 132.172C5.98002 132.724 6.25602 133.408 6.25602 134.224C6.25602 135.016 5.98002 135.688 5.42802 136.24C4.90002 136.816 4.21602 137.104 3.37602 137.104ZM3.37602 169.887C2.53602 169.887 1.85202 169.599 1.32402 169.023C0.796024 168.471 0.532024 167.799 0.532024 167.007C0.532024 166.191 0.796024 165.507 1.32402 164.955C1.85202 164.403 2.53602 164.127 3.37602 164.127C4.21602 164.127 4.90002 164.403 5.42802 164.955C5.98002 165.507 6.25602 166.191 6.25602 167.007C6.25602 167.799 5.98002 168.471 5.42802 169.023C4.90002 169.599 4.21602 169.887 3.37602 169.887ZM3.37602 202.669C2.53602 202.669 1.85202 202.381 1.32402 201.805C0.796024 201.253 0.532024 200.581 0.532024 199.789C0.532024 198.973 0.796024 198.289 1.32402 197.737C1.85202 197.185 2.53602 196.909 3.37602 196.909C4.21602 196.909 4.90002 197.185 5.42802 197.737C5.98002 198.289 6.25602 198.973 6.25602 199.789C6.25602 200.581 5.98002 201.253 5.42802 201.805C4.90002 202.381 4.21602 202.669 3.37602 202.669ZM3.37602 235.452C2.53602 235.452 1.85202 235.164 1.32402 234.588C0.796024 234.036 0.532024 233.364 0.532024 232.572C0.532024 231.756 0.796024 231.072 1.32402 230.52C1.85202 229.968 2.53602 229.692 3.37602 229.692C4.21602 229.692 4.90002 229.968 5.42802 230.52C5.98002 231.072 6.25602 231.756 6.25602 232.572C6.25602 233.364 5.98002 234.036 5.42802 234.588C4.90002 235.164 4.21602 235.452 3.37602 235.452ZM3.37602 268.234C2.53602 268.234 1.85202 267.946 1.32402 267.37C0.796024 266.818 0.532024 266.146 0.532024 265.354C0.532024 264.538 0.796024 263.854 1.32402 263.302C1.85202 262.75 2.53602 262.474 3.37602 262.474C4.21602 262.474 4.90002 262.75 5.42802 263.302C5.98002 263.854 6.25602 264.538 6.25602 265.354C6.25602 266.146 5.98002 266.818 5.42802 267.37C4.90002 267.946 4.21602 268.234 3.37602 268.234ZM3.37602 301.017C2.53602 301.017 1.85202 300.729 1.32402 300.153C0.796024 299.601 0.532024 298.929 0.532024 298.137C0.532024 297.321 0.796024 296.637 1.32402 296.085C1.85202 295.533 2.53602 295.257 3.37602 295.257C4.21602 295.257 4.90002 295.533 5.42802 296.085C5.98002 296.637 6.25602 297.321 6.25602 298.137C6.25602 298.929 5.98002 299.601 5.42802 300.153C4.90002 300.729 4.21602 301.017 3.37602 301.017ZM3.37602 333.799C2.53602 333.799 1.85202 333.511 1.32402 332.935C0.796024 332.383 0.532024 331.711 0.532024 330.919C0.532024 330.103 0.796024 329.419 1.32402 328.867C1.85202 328.315 2.53602 328.039 3.37602 328.039C4.21602 328.039 4.90002 328.315 5.42802 328.867C5.98002 329.419 6.25602 330.103 6.25602 330.919C6.25602 331.711 5.98002 332.383 5.42802 332.935C4.90002 333.511 4.21602 333.799 3.37602 333.799Z" fill="url(#paint0_linear_227_1894)"/>
<defs>
<linearGradient id="paint0_linear_227_1894" x1="397" y1="167" x2="1.99999" y2="167" gradientUnits="userSpaceOnUse">
<stop stop-color="#E34B8A"/>
<stop offset="1" stop-color="#8D078A"/>
</linearGradient>
</defs>
</svg>
