<svg width="250" height="260" viewBox="0 0 250 260" fill="none" xmlns="http://www.w3.org/2000/svg">
<path d="M61.2071 50.2462C58.744 53.9408 56.4041 56.1575 51.7243 60.0984C40.3943 69.9506 37.9312 71.3053 32.0199 76.4777C22.6603 84.729 17.2416 89.5319 13.1775 97.7832C12.1923 99.6304 9.48294 105.419 8.25142 113.424C6.89674 122.414 8.00511 129.433 8.62087 133.128C13.3007 159.483 20.0741 183.621 20.0741 183.621C29.3105 216.133 31.8967 219.089 32.3893 227.34C32.5125 228.448 32.7588 233.251 33.9903 233.374C35.2219 233.497 36.2071 228.818 38.0544 225.123C43.2268 215.025 57.5125 207.512 69.212 209.483C73.0297 210.098 78.9411 209.729 83.6209 214.039C84.6061 214.901 87.4386 217.734 88.547 222.291C89.0396 224.138 88.7933 226.724 88.547 231.773C88.4238 233.621 88.1775 234.852 88.0544 235.837C87.9312 236.453 87.8081 236.699 87.8081 237.069C87.8081 237.069 87.3155 239.655 87.9312 242.118C88.7933 245.443 96.9214 246.305 106.774 248.029C115.025 249.507 115.764 250 119.335 250.493C169.089 258.128 206.65 237.685 206.65 237.685C221.675 229.557 235.961 221.675 240.025 206.773C241.626 200.739 239.286 188.3 234.729 163.547C233.498 156.65 231.65 145.566 231.404 131.034C231.404 128.325 231.527 125.616 231.774 122.167C232.636 112.561 234.237 108.497 235.468 93.4728C235.714 89.6551 235.714 90.1477 236.33 67.9802C236.946 46.059 237.192 40.2708 232.636 35.0984C230.173 32.3891 227.586 31.2807 223.153 29.3102C215.517 25.9851 208.99 25.862 196.429 25.6157C176.847 25.3694 175.493 25.3694 169.335 25.2462C157.636 24.7536 151.724 24.6304 144.089 23.5221C125 20.8127 124.631 16.7487 109.976 15.7634C100.862 15.1477 88.4238 14.2856 78.8179 21.9211C72.414 27.0935 68.1036 35.2216 67.7342 35.8373C64.6554 41.7487 64.9017 44.7043 61.2071 50.2462Z" fill="#F4CAFF"/>
<path d="M67.1192 39.7782C64.0404 40.5171 62.932 53.5713 67.3655 64.6551C68.597 67.6107 69.9517 70.9359 73.1537 74.1378C80.4197 81.2807 91.1339 80.6649 98.6463 80.2955C104.558 79.926 112.809 79.5566 121.183 73.7684C123.4 72.2906 130.543 67.1181 133.868 58.128C133.991 57.8817 134.114 57.5122 134.114 57.2659C135.715 52.2167 136.824 47.2906 137.07 44.5812C137.932 36.33 134.361 27.0935 132.267 27.0935C131.035 27.0935 130.297 30.2955 130.297 30.5418C129.434 34.1132 131.282 36.8226 131.774 38.793C133.252 44.8275 124.508 52.463 119.459 56.0344C108.868 63.5467 91.8729 65.2708 80.9123 57.6354C70.9369 50.7388 70.0748 39.0393 67.1192 39.7782Z" fill="#532E59"/>
<path d="M232.143 118.719C233.621 118.719 234.73 110.591 235.222 106.65C236.7 95.6897 236.207 87.3153 236.207 86.9458C234.73 64.0394 236.577 43.5961 235.838 43.4729C235.222 43.4729 236.7 57.3892 232.39 77.3399C230.542 86.2069 228.326 92.1182 228.695 102.34C229.064 109.975 230.665 118.719 232.143 118.719Z" fill="#532E59"/>
<path d="M153.078 160.222C153.941 158.128 156.404 157.02 161.453 154.68C165.886 152.709 171.059 150.246 178.448 150C183.128 149.877 189.285 149.631 194.827 153.448C200.492 157.266 199.507 161.207 205.665 164.286C208.867 165.887 214.285 167.365 217.364 164.901C218.842 163.793 218.349 162.808 220.812 158.128C221.551 156.65 223.029 153.818 225.492 150.985C226.354 149.877 231.034 144.458 232.881 145.443C233.497 145.69 234.113 146.921 230.665 161.823C228.817 169.704 227.832 173.768 226.601 175.985C222.167 184.113 215.024 187.931 213.054 188.916C202.709 194.089 192.487 191.749 185.96 190.148C174.753 187.438 167.487 181.773 165.024 179.68C162.684 177.956 150.123 167.241 153.078 160.222Z" fill="#532E59"/>
<path d="M119.458 218.596C121.183 217.365 122.045 216.626 123.769 215.394C131.035 209.852 134.729 207.143 135.468 206.404C139.409 202.833 144.582 198.03 145.321 191.01C145.444 190.025 146.059 184.113 142.488 181.404C141.626 180.788 140.887 180.542 134.483 180.419C127.71 180.296 124.385 180.296 121.552 180.419C118.596 180.542 117.734 180.788 116.01 180.419C112.931 179.803 112.562 178.572 109.237 177.586C107.143 176.971 104.311 176.232 101.848 177.586C99.3845 178.941 98.3993 181.65 98.153 182.266C97.4141 184.113 97.9067 184.729 97.1678 185.714C95.69 187.685 91.2565 187.562 88.1777 186.33C82.5126 184.113 80.1727 177.709 79.557 175.862C77.8328 171.059 79.1875 169.458 77.0939 164.163C75.8624 161.084 74.5077 158.99 73.0299 157.02C63.3008 143.227 58.3747 136.453 57.8821 136.7C57.02 137.192 65.3944 147.783 69.5816 164.409C69.8279 165.394 71.0594 170.443 72.6604 177.094C75.2466 188.054 75.1235 188.424 76.1087 190.394C79.8033 197.907 84.3599 197.168 86.9461 203.941C87.5619 205.665 87.4387 205.911 87.685 216.503C88.0545 228.941 88.0545 231.158 87.4387 234.36C86.4535 239.902 85.0988 241.379 85.8378 242.118C88.5471 244.212 102.833 231.035 119.458 218.596Z" fill="#532E59"/>
<path d="M146.552 143.35C148.522 142.365 148.153 140.764 151.478 135.591C154.31 131.281 157.512 127.956 158.005 128.202C158.498 128.572 154.926 132.636 152.709 140.271C151.724 143.842 150.616 147.537 150.862 152.586C150.985 154.68 151.478 157.143 151.108 157.266C150.739 157.389 150.123 155.296 149.138 153.325C147.291 149.877 144.828 147.907 142.857 146.429C135.222 140.517 123.645 140.148 123.769 139.655C123.769 139.286 128.079 139.04 133.621 140.148C141.379 141.749 143.596 144.705 146.552 143.35Z" fill="#794083"/>
<path d="M230.664 122.044C229.433 122.537 222.783 108.374 217.857 93.9656C216.748 90.6405 215.147 85.8375 215.27 85.7144C215.394 85.7144 216.379 89.0395 218.103 92.8572C221.921 101.355 228.325 110.961 230.049 115.517C230.664 117.118 230.788 118.596 230.788 119.335C230.911 120.69 230.911 121.921 230.664 122.044Z" fill="#532E59"/>
<path d="M86.0843 242.118C86.2075 241.749 91.2568 243.842 100.124 245.813C111.207 248.276 119.951 248.645 127.464 248.892C131.035 249.015 139.04 249.261 149.631 248.522C156.651 248.029 166.626 247.414 178.941 244.827C190.272 242.364 201.971 239.901 214.533 232.635C230.05 223.645 237.808 212.561 237.808 212.685C237.932 212.808 224.508 233.374 199.508 243.965C188.055 248.892 177.217 250.369 167.119 251.724C153.326 253.571 142.611 253.325 132.02 252.956C122.168 252.709 116.749 252.463 109.237 250.739C96.306 247.906 85.838 242.611 86.0843 242.118Z" fill="#3F2044"/>
<path d="M66.4785 237.789C81.3309 232.071 90.9542 221.158 87.9728 213.414C84.9914 205.671 70.5342 204.029 55.6818 209.747C40.8293 215.466 31.206 226.379 34.1874 234.123C37.1688 241.866 51.626 243.508 66.4785 237.789Z" fill="#FAEBFF"/>
<path d="M107.047 62.7883C125.42 57.0465 136.991 41.7609 132.893 28.6469C128.795 15.533 110.578 9.55662 92.2059 15.2984C73.8333 21.0402 62.2618 36.3258 66.3602 49.4398C70.4586 62.5538 88.6749 68.5301 107.047 62.7883Z" fill="#FAEBFF"/>
</svg>
